<svg version="1.1" id="Layer_1" xmlns="http://www.w3.org/2000/svg" xmlns:xlink="http://www.w3.org/1999/xlink" x="0px" y="0px"
	 width="100%" viewBox="0 0 1024 656" enable-background="new 0 0 1024 656" xml:space="preserve">
<path fill="#000000" opacity="1.000000" stroke="none" 
	d="
M274.188660,351.584351 
	C270.538544,294.220856 284.664978,241.991318 317.181244,195.288696 
	C355.830963,139.776733 408.997955,105.958748 475.448608,93.199203 
	C483.645203,91.625328 491.905914,91.091690 500.163025,93.693756 
	C506.332947,95.638092 512.745361,95.653206 518.824585,93.198677 
	C531.200745,88.201691 543.767883,89.939125 556.241333,92.111183 
	C636.974670,106.169556 697.200623,149.271210 736.224548,221.190872 
	C752.176880,250.590347 761.077087,282.481964 763.430481,316.021545 
	C768.023865,381.484314 749.511536,439.799011 708.446533,490.767059 
	C682.339478,523.169861 649.470520,546.965332 611.098694,562.949219 
	C578.514832,576.522034 544.402527,582.681702 509.161011,581.025757 
	C456.848846,578.567688 409.915070,560.910889 368.703064,528.648193 
	C325.908417,495.146576 296.963165,452.108276 282.300537,399.717010 
	C277.946991,384.161377 275.120789,368.244141 274.188660,351.584351 
M404.307281,438.070831 
	C401.918671,433.020996 402.375916,427.201660 400.272583,422.157013 
	C395.646912,411.062653 392.259918,399.567719 388.551941,388.171173 
	C380.810577,364.378174 373.371429,340.622070 375.540863,314.966919 
	C376.694000,301.330658 380.854553,289.655945 391.825806,280.979248 
	C399.838837,274.642090 408.782410,269.776337 417.843719,265.221710 
	C423.078491,262.590454 426.496735,259.228943 428.477386,253.545212 
	C432.378601,242.350082 435.254730,240.582230 447.002380,241.123734 
	C450.781830,241.297974 451.775940,240.156403 452.066711,236.499115 
	C452.989380,224.893829 453.452332,213.262405 454.547729,201.658844 
	C455.888306,187.458206 463.949768,177.282455 472.701630,167.223801 
	C474.942902,164.647888 478.674744,165.970505 480.815887,164.062653 
	C483.543610,161.632126 487.113556,162.734161 489.986908,160.881454 
	C493.820221,158.409866 498.407135,157.956100 502.952148,157.718613 
	C520.973267,156.777084 534.793518,167.476776 549.519775,175.169724 
	C552.385498,176.666794 554.554749,177.906647 557.294312,177.420395 
	C558.878052,178.534256 558.572693,181.117783 560.171509,181.057449 
	C564.396973,180.898010 564.144653,183.848907 564.208313,186.398865 
	C564.382141,193.359772 562.844543,199.667969 556.566040,203.838852 
	C555.581848,204.492676 554.291687,205.143433 554.532898,206.435410 
	C555.310364,210.599869 554.712463,215.023560 556.589478,219.294815 
	C562.685913,216.497192 568.584229,217.916687 574.491089,218.677933 
	C578.978149,219.256195 583.546387,219.680435 586.899597,223.158127 
	C590.118835,226.496811 589.608582,230.678375 588.498047,234.805313 
	C592.809265,235.363907 595.819519,232.707413 599.556458,232.420639 
	C610.882568,231.551453 622.293030,232.766266 633.505127,231.496048 
	C644.319763,230.270828 655.907593,234.026764 665.939087,227.035522 
	C666.428345,226.694534 667.230469,226.764175 667.892273,226.714783 
	C676.192505,226.095367 684.491699,225.459579 692.795532,224.892075 
	C696.995911,224.605011 701.387329,224.108612 701.880676,229.760605 
	C703.924377,230.715500 704.976379,228.627243 706.681824,228.738693 
	C705.761108,232.586945 703.087158,234.259171 700.323303,235.882401 
	C694.590820,239.249084 694.600403,239.265549 697.924133,244.779160 
	C702.374939,252.162674 702.050781,258.129578 696.852539,265.141998 
	C695.994385,266.299683 694.619934,267.241333 695.076294,269.407684 
	C697.832825,271.075195 700.829895,272.839172 703.774780,274.686432 
	C705.852173,275.989532 707.576721,277.710693 706.909180,280.388763 
	C706.153625,283.420166 703.518372,283.149323 701.182251,283.020416 
	C690.709412,282.442566 680.235474,281.872406 669.770996,281.164948 
	C667.122314,280.985840 664.687256,280.094818 662.387085,278.471375 
	C658.070190,275.424530 654.097534,276.580658 651.349731,281.116882 
	C650.501160,282.517731 649.539490,284.093933 648.212769,284.922180 
	C638.946655,290.707062 632.636292,300.342773 622.247559,304.684875 
	C619.897034,305.667297 618.276306,307.679657 618.331360,310.583008 
	C618.422913,315.406128 618.318970,320.215088 618.690857,325.052368 
	C619.774475,339.145752 622.156982,353.165466 621.309509,367.381256 
	C621.063965,371.499420 620.026917,375.633087 621.360840,379.743561 
	C622.968323,384.697174 621.624817,389.359833 619.577454,393.758636 
	C616.535217,400.294708 612.089417,405.945984 607.389954,411.373169 
	C605.227051,413.871063 602.518250,414.560181 599.257507,413.781738 
	C595.374268,412.854767 591.453979,411.981171 587.499817,411.472198 
	C574.850220,409.843964 565.865173,401.698273 563.501038,389.444214 
	C562.870422,386.175751 562.344055,382.886108 561.660339,379.629181 
	C560.052612,371.969818 558.567566,364.274536 555.896667,356.893616 
	C560.027527,387.716675 564.509460,418.459595 569.328064,449.160858 
	C574.202393,480.217316 587.567322,508.791260 594.138550,539.313721 
	C664.089722,516.098389 742.914429,435.419281 736.484070,322.004242 
	C730.183289,210.873413 639.285156,117.480560 520.438843,116.681625 
	C417.283081,115.988174 316.743805,193.083389 304.684662,313.158813 
	C299.391052,365.868439 312.365112,414.330231 342.249390,458.034180 
	C361.407898,486.052277 385.814972,508.475250 416.020569,525.127258 
	C418.722137,519.703308 419.801544,514.637695 418.128235,509.925537 
	C413.150360,495.907166 413.085327,481.560699 413.985260,467.042755 
	C414.138977,464.562897 413.821136,462.114685 412.835663,459.710510 
	C409.995361,452.781158 407.343048,445.774719 404.307281,438.070831 
M540.368713,247.912430 
	C537.152039,254.403702 536.793945,261.363007 537.148804,268.399078 
	C537.503906,275.438904 535.951538,281.894470 532.139771,287.880737 
	C530.086975,291.104706 528.447021,294.591614 526.621826,297.960449 
	C517.451599,314.886230 507.211365,331.019257 492.358612,343.673462 
	C489.926605,345.745453 489.777374,348.211151 490.554382,350.909119 
	C492.304077,356.984253 493.902008,363.121338 496.034149,369.063721 
	C499.055023,377.483215 503.006012,385.496826 507.478485,393.160431 
	C509.603790,392.591644 510.260376,391.129700 511.024170,389.927582 
	C516.292847,381.635223 521.809753,373.476532 526.622620,364.923645 
	C536.046692,348.176453 542.102783,329.925934 549.480835,312.262970 
	C552.338074,305.422821 553.989685,297.251648 560.718201,293.229584 
	C570.293823,287.505676 577.290405,278.780975 586.525940,272.788635 
	C588.775513,271.329010 589.601501,269.401489 588.159424,267.005432 
	C585.540894,265.597595 583.175720,268.911407 580.301331,267.149170 
	C582.253540,264.368774 585.281128,263.406921 587.381592,261.367859 
	C588.905090,259.888855 589.967346,257.949585 588.654175,256.039825 
	C587.485779,254.340637 585.650208,255.503052 584.083069,255.975647 
	C581.506592,256.752655 579.336060,258.969940 575.826111,258.460266 
	C577.986572,254.173447 581.970581,252.989868 585.259033,251.032150 
	C587.288025,249.824219 588.364441,248.352051 587.506836,246.158829 
	C586.513428,243.618301 584.308411,244.082230 582.416992,244.866135 
	C579.499634,246.075226 576.697754,247.560654 573.828247,248.888474 
	C572.091431,249.692139 570.326050,251.075668 567.953674,248.427139 
	C571.629517,243.694336 575.002380,238.682739 580.307800,235.345200 
	C581.598816,234.533081 583.112488,233.715851 582.352051,231.877396 
	C581.672913,230.235382 580.042419,230.138428 578.488831,230.317963 
	C576.259949,230.575500 574.484741,231.856537 572.637512,232.988342 
	C565.901978,237.115280 560.916260,243.340561 554.605713,247.982025 
	C552.093506,249.829803 549.645264,251.661575 545.911926,251.703705 
	C547.033630,245.282822 545.912598,239.003479 547.692932,232.753662 
	C546.380005,238.186371 542.903076,242.381454 540.368713,247.912430 
M458.478668,270.045135 
	C464.526398,276.946716 471.353607,283.059509 478.036804,289.314911 
	C480.640381,291.751801 482.741119,294.462769 483.756012,297.933929 
	C486.657257,307.856720 494.940460,315.029785 496.708618,325.533936 
	C497.164551,325.357483 497.620514,325.181061 498.076477,325.004608 
	C496.869446,315.703125 495.662445,306.401642 494.466919,297.188843 
	C491.274658,296.775696 490.688629,301.115814 487.350281,299.892792 
	C486.633331,296.308594 487.911987,292.631287 489.940186,290.259766 
	C495.769226,283.444000 493.675690,278.426422 488.395844,272.462311 
	C483.551270,266.989899 483.801727,258.652283 487.474609,253.631363 
	C487.682892,253.871216 488.037781,254.088593 488.078491,254.354141 
	C490.752716,271.793549 504.546661,278.182861 518.245911,284.563293 
	C521.480835,286.069946 524.728088,285.373352 526.260376,281.845734 
	C527.966003,277.919037 529.958496,274.090302 530.256470,269.593536 
	C530.758728,262.013824 530.331238,254.269165 534.319092,247.232971 
	C537.428101,241.747452 540.404480,236.161209 542.395508,230.115189 
	C542.727539,229.106888 543.725220,227.673096 544.551880,227.573868 
	C551.443909,226.746506 550.213989,221.619293 549.738342,217.429398 
	C548.019958,202.292068 549.935852,204.503662 537.435730,199.618683 
	C528.816711,196.250443 524.919556,199.902679 526.663696,208.952454 
	C527.906738,215.402267 527.332764,217.760666 521.338623,220.046814 
	C514.361633,222.707855 511.270782,227.851746 509.651306,234.386887 
	C508.914368,237.360626 507.659454,238.729660 504.481598,238.142944 
	C501.512848,237.594833 499.505890,236.486877 499.770416,232.986542 
	C499.998291,229.971344 499.692963,226.959625 498.287811,224.222427 
	C496.208923,220.172913 494.093811,215.995682 488.535248,216.267929 
	C482.910553,216.543411 482.026855,221.142288 480.631866,225.237396 
	C477.458466,234.553314 472.035889,242.058319 461.885681,243.879105 
	C455.434509,245.036316 452.303986,249.055450 449.164062,253.850174 
	C447.841248,255.870178 447.812500,257.326416 449.394440,259.137177 
	C452.349854,262.520081 455.144348,266.043640 458.478668,270.045135 
M597.368103,306.513306 
	C595.676392,322.923370 592.586853,339.066132 587.867126,354.873840 
	C585.948364,361.300232 584.308289,367.692749 585.218262,374.494659 
	C586.485413,383.966095 595.077637,392.270355 604.288818,392.878387 
	C607.211731,393.071289 609.608398,392.544434 610.609497,389.357849 
	C614.278198,377.679932 616.638184,365.863586 615.349915,353.496216 
	C614.264160,343.072998 613.851746,332.571503 612.507446,322.186737 
	C611.847717,317.089783 614.222961,311.580170 610.389099,306.833282 
	C613.435242,303.532806 617.134216,301.319916 620.806885,299.060059 
	C625.768005,296.007507 630.991150,293.243988 634.724548,288.615540 
	C637.059814,285.720459 639.457031,283.099792 643.027344,281.671417 
	C644.903259,280.920898 646.378540,279.514313 646.806274,277.326202 
	C647.667358,272.922150 642.761963,264.834351 637.945740,263.018463 
	C635.910095,266.941559 639.108582,269.931366 639.786255,273.312561 
	C640.225220,275.503265 640.903442,277.886749 638.166687,278.835846 
	C635.424255,279.786926 634.857788,277.199524 634.151917,275.457001 
	C631.133362,268.005157 624.895508,263.390259 619.204529,258.302368 
	C617.925537,257.158905 616.159546,256.331635 614.806396,258.036865 
	C613.693726,259.438995 614.637817,260.963104 615.715210,262.053284 
	C617.350830,263.708344 619.179626,265.170349 620.865845,266.777863 
	C626.922913,272.552032 629.367920,279.599426 626.795532,286.355865 
	C621.454041,275.562164 614.537903,267.267151 603.148560,263.861053 
	C606.836365,272.441528 617.442139,276.661499 617.905640,288.092468 
	C610.681946,283.720917 608.358093,274.870392 599.679443,271.743073 
	C600.272827,275.389648 601.885742,276.919495 603.148499,278.595734 
	C605.267822,281.409027 607.271179,284.289124 608.128723,287.746948 
	C608.618164,289.720337 608.764343,291.418274 606.044250,292.470978 
	C597.182251,295.900543 597.207886,296.076538 597.368103,306.513306 
M562.072083,300.627380 
	C558.022888,307.414459 559.808716,318.845581 565.994324,323.754364 
	C570.287476,327.161346 573.500549,331.260132 575.644775,336.232483 
	C577.176880,339.785522 579.984375,341.434113 584.028015,342.274811 
	C587.072693,334.533264 588.062195,326.467682 589.726013,318.575104 
	C592.025879,307.664734 588.695496,295.234924 598.408081,286.315979 
	C598.517456,286.215576 598.540527,286.014252 598.588745,285.855438 
	C599.812073,281.832123 597.498657,279.099854 594.932983,276.685913 
	C592.374939,274.279114 590.650757,277.147278 588.956909,278.296082 
	C579.475647,284.726440 572.863342,294.658905 562.072083,300.627380 
M504.989227,405.605804 
	C506.087402,404.333466 507.185608,403.061127 508.758148,401.239227 
	C503.743652,402.106354 501.036774,404.903595 498.202576,407.449066 
	C492.558594,412.518127 486.253479,414.308502 478.841827,411.949646 
	C472.169159,409.826019 465.657959,407.357239 459.272278,404.467438 
	C443.122864,397.159058 429.998749,385.481903 416.106079,374.910248 
	C413.983856,373.295319 411.904541,371.693329 409.213379,371.108459 
	C410.016541,372.748047 410.987213,374.096405 412.170441,375.221100 
	C429.393555,391.591644 447.369537,406.479614 470.804199,413.810333 
	C487.170471,418.929993 492.741272,418.570404 504.989227,405.605804 
M538.331970,446.088348 
	C531.102661,428.923126 525.834778,411.055664 519.891785,393.402954 
	C519.386292,394.851501 519.188416,396.183319 519.417053,397.437408 
	C521.599487,409.409149 524.691711,421.132355 528.985046,432.537781 
	C535.913635,450.943665 541.874573,469.632233 545.541931,489.006409 
	C546.807373,495.691528 548.517456,502.292511 550.024475,508.931915 
	C549.689758,499.848236 547.988525,491.049500 546.899414,482.175629 
	C545.413208,470.064972 543.098999,458.197968 538.331970,446.088348 
M594.154541,261.690002 
	C593.960083,262.492249 593.563660,263.462128 594.382935,263.989319 
	C595.482178,264.696655 596.356567,263.971283 596.664185,262.937134 
	C597.626282,259.702820 599.699219,257.918060 603.048157,257.482452 
	C604.683228,257.269775 605.081848,255.877289 605.253052,254.533737 
	C605.987244,248.770279 605.604797,243.025299 605.440002,237.365295 
	C599.524170,235.840836 595.225403,238.220047 591.112793,240.766663 
	C593.052185,247.486954 595.524170,253.945740 594.154541,261.690002 
M627.252563,257.955414 
	C631.587769,260.793396 635.991821,258.526459 636.498291,252.835571 
	C636.893066,248.399658 636.616150,243.903717 636.631653,239.434418 
	C636.637451,237.765945 636.073120,236.725220 634.202271,236.311005 
	C626.628418,234.634171 624.249084,236.382767 624.199097,243.912567 
	C624.181519,246.561310 624.197754,249.210251 624.190552,251.859085 
	C624.184387,254.117981 624.759094,256.117462 627.252563,257.955414 
M469.545197,331.952087 
	C466.826172,329.155426 463.808746,326.772583 460.179810,325.157532 
	C463.789246,330.191559 467.722900,334.897583 471.496582,339.728546 
	C475.704315,345.115265 475.569977,345.093872 470.666138,350.007507 
	C467.397369,353.282837 464.196777,356.700684 463.159058,362.084076 
	C465.994690,361.257141 466.737915,359.457367 467.888367,358.100952 
	C470.814026,354.651611 473.849609,351.279724 478.265167,349.774902 
	C482.565887,348.309235 482.281006,345.837738 479.870483,343.053345 
	C476.718384,339.412354 473.334229,335.972290 469.545197,331.952087 
M467.237457,291.884064 
	C464.021027,293.460693 461.739624,296.155060 459.333527,298.658325 
	C456.429596,301.679504 454.104034,301.571930 451.825867,297.946533 
	C448.380768,292.464111 444.816803,287.055389 441.237183,281.659241 
	C440.335602,280.300171 439.619659,278.588562 437.007812,277.951996 
	C440.335510,285.834686 444.104584,292.605042 448.522034,299.025940 
	C453.549713,306.333801 454.419037,306.395203 460.925110,300.542419 
	C463.013367,298.663849 465.221008,296.837891 467.625153,295.411041 
	C470.598389,293.646423 472.510956,296.964569 475.948334,298.251984 
	C473.245453,294.808655 472.064972,291.369049 467.237457,291.884064 
M554.273865,519.274231 
	C553.554138,517.358032 552.834412,515.441772 552.114746,513.525513 
	C554.515320,524.231995 554.276428,535.011475 554.281372,545.778137 
	C554.282410,548.015503 553.742676,550.849365 557.690369,550.217285 
	C560.745239,549.728149 561.912354,548.505554 560.962097,545.131165 
	C558.619202,536.811096 556.656616,528.383911 554.273865,519.274231 
M660.847534,266.240326 
	C660.847534,256.356354 660.847534,246.472382 660.847534,236.588425 
	C660.329346,236.593613 659.811218,236.598816 659.293030,236.604004 
	C659.293030,246.506866 659.276794,256.409821 659.325134,266.312439 
	C659.328857,267.068329 659.657593,268.146637 660.847534,266.240326 
z"/>
</svg>