<svg version="1.1" id="Layer_1" xmlns="http://www.w3.org/2000/svg" xmlns:xlink="http://www.w3.org/1999/xlink" x="0px" y="0px"
	 width="100%" viewBox="0 0 1024 1024" enable-background="new 0 0 1024 1024" xml:space="preserve">
<path fill="#000000" opacity="1.000000" stroke="none" 
	d="
M257.000000,645.277466 
	C219.172852,645.276428 181.845718,645.301575 144.518646,645.264282 
	C116.728958,645.236572 97.724419,626.241150 97.715820,598.500977 
	C97.694481,529.679077 97.672295,460.857147 97.718826,392.035278 
	C97.733521,370.298950 110.920158,353.177460 131.781296,347.612701 
	C134.166183,346.976501 136.705704,346.924652 139.171127,346.584351 
	C141.144699,346.311951 143.484802,346.599701 145.024536,345.628174 
	C153.419678,340.330963 163.384216,340.971832 171.166107,343.490173 
	C181.343994,346.783905 191.106186,345.786957 200.998932,345.969238 
	C225.297104,346.416962 249.647858,345.288910 273.899719,346.436981 
	C286.171356,347.017883 292.850037,343.237854 298.560638,332.410675 
	C307.008240,316.394073 317.552765,301.485107 327.170319,286.083191 
	C331.701202,278.827301 338.361877,275.114105 346.739990,275.070404 
	C374.567871,274.925262 402.397858,274.906067 430.225159,275.105865 
	C438.510437,275.165344 445.284119,278.638702 449.843475,285.996979 
	C460.547943,303.272675 471.981720,320.132812 481.878326,337.854736 
	C485.765411,344.815338 489.686768,346.612244 497.140961,346.318024 
	C510.934814,345.773529 524.807861,345.342255 538.600525,346.553162 
	C561.630737,348.575012 577.973938,366.421661 578.139404,389.602905 
	C578.275024,408.598694 578.169617,427.596344 578.145081,446.593109 
	C578.136475,453.246826 578.082153,453.265472 571.446899,453.293396 
	C559.258057,453.344635 550.995728,458.710754 547.852600,468.741669 
	C546.532410,472.954712 546.973022,477.350922 547.098267,481.652954 
	C547.222534,485.920563 545.711914,487.531525 541.300781,487.497284 
	C530.305969,487.411835 530.097046,487.610474 528.941589,475.484192 
	C525.691162,441.370789 511.672363,412.116058 488.877197,386.953766 
	C467.816010,363.705597 441.177338,350.292297 410.468597,345.432587 
	C359.260498,337.328857 315.940155,353.866791 280.599884,390.676147 
	C257.274139,414.971466 245.040466,444.890656 242.087082,478.652374 
	C236.286438,544.963196 282.336426,616.028320 357.001007,631.960205 
	C388.423706,638.665161 418.952881,635.259766 448.019348,620.983826 
	C450.947357,619.545776 453.717621,617.606567 457.419037,617.177307 
	C459.098663,621.898193 458.212067,626.560730 458.246521,631.104126 
	C458.353638,645.215271 458.270325,645.234314 443.964996,645.238708 
	C381.809998,645.257812 319.654999,645.265259 257.000000,645.277466 
M220.375275,602.475830 
	C220.383011,604.808289 220.376038,607.140991 220.401840,609.473206 
	C220.443939,613.279724 219.803040,618.288330 225.179184,618.180847 
	C230.149155,618.081482 229.573456,613.138306 229.575455,609.556580 
	C229.617981,533.250366 229.617661,456.944183 229.607681,380.638000 
	C229.607483,379.149689 229.583969,377.613403 229.229065,376.184509 
	C228.715500,374.116638 227.420929,372.495361 225.115204,372.429535 
	C222.726669,372.361389 221.689468,374.049408 221.046677,376.125702 
	C220.238953,378.734711 220.398865,381.403687 220.398300,384.061157 
	C220.383133,456.535339 220.379120,529.009521 220.375275,602.475830 
M159.288086,365.670349 
	C143.460617,373.501038 139.162613,390.427032 150.010193,402.207642 
	C160.874054,414.005951 182.528275,413.553680 192.895645,401.311981 
	C201.047348,391.686401 200.138672,378.280487 190.463425,370.120697 
	C181.365097,362.447449 171.030930,361.365356 159.288086,365.670349 
M543.148438,384.586304 
	C546.670898,376.778564 543.353088,371.186432 535.007690,371.032654 
	C529.678284,370.934448 524.340149,370.897491 519.015320,371.091736 
	C514.072266,371.272095 510.400513,375.112793 510.398834,379.694550 
	C510.397278,384.081635 513.893127,387.607574 518.864746,387.778534 
	C524.522888,387.973022 530.192383,387.837006 535.856934,387.842834 
	C538.471558,387.845520 540.753418,386.996002 543.148438,384.586304 
z"/>
<path fill="#000000" opacity="1.000000" stroke="none" 
	d="
M467.700836,711.260254 
	C467.011078,707.797241 464.540314,708.324036 462.462341,708.308167 
	C454.132111,708.244446 445.800842,708.310181 437.470856,708.230896 
	C428.627899,708.146790 423.122589,703.599304 422.337280,694.946289 
	C421.661926,687.504456 421.311096,679.953735 422.604248,672.524353 
	C423.924957,664.937012 428.784607,660.859619 436.430695,660.737366 
	C444.592651,660.606873 452.758148,660.704468 460.922119,660.689819 
	C467.610138,660.677856 467.644684,660.669617 467.643799,654.123108 
	C467.638245,613.136475 467.714691,572.149475 467.533691,531.163574 
	C467.485138,520.170837 471.679443,511.501587 479.862122,504.494873 
	C486.412720,498.885742 494.174347,496.982361 502.591400,496.982391 
	C567.903259,496.982697 633.215088,496.964661 698.526978,496.959198 
	C715.188171,496.957825 731.849670,496.918121 748.510437,497.009277 
	C768.431824,497.118286 783.017639,511.423676 783.057800,531.394104 
	C783.173706,589.041077 783.129517,646.688660 783.009827,704.335754 
	C782.973572,721.806152 773.494507,734.395996 757.908875,738.624573 
	C755.113403,739.382996 752.308777,739.374023 749.483826,739.374268 
	C666.677612,739.380981 583.871399,739.388489 501.065216,739.366272 
	C483.510956,739.361572 471.303467,729.151245 467.700836,711.260254 
M739.665527,653.500000 
	C739.670166,621.340698 739.708069,589.181274 739.666565,557.022034 
	C739.642944,538.724487 727.147827,526.004700 709.021118,525.987915 
	C649.368347,525.932617 589.715454,525.932678 530.062683,526.002930 
	C512.446533,526.023682 500.198364,538.284607 500.168823,555.917297 
	C500.103760,594.741333 500.130646,633.565857 500.236938,672.389832 
	C500.280304,688.232117 512.447693,700.598572 528.224731,701.070557 
	C533.385803,701.224976 538.554871,701.117249 543.720276,701.118347 
	C598.707214,701.130188 653.694519,701.042725 708.680969,701.216064 
	C723.004944,701.261230 735.020264,692.722595 738.598877,678.877319 
	C740.676636,670.838684 739.257874,662.624268 739.665527,653.500000 
z"/>
<path fill="#000000" opacity="1.000000" stroke="none" 
	d="
M875.250000,501.143829 
	C894.001099,492.801727 912.376831,484.534912 930.840820,476.470123 
	C942.702332,471.289154 952.895203,477.911041 953.080078,491.010498 
	C953.305847,507.000549 953.170105,522.995850 953.167236,538.988892 
	C953.156250,599.629395 953.125488,660.269897 953.134644,720.910400 
	C953.135620,726.978699 952.107117,732.618347 946.871155,736.453491 
	C942.195007,739.878540 937.094299,740.401672 931.797974,737.819336 
	C906.950989,725.704407 882.108887,713.579346 857.257935,701.472534 
	C848.724915,697.315552 840.214722,693.107178 831.605225,689.113831 
	C828.216003,687.541626 826.666016,685.540344 826.677429,681.528076 
	C826.819519,631.716614 826.816711,581.904541 826.697815,532.093018 
	C826.687744,527.861572 828.066833,525.528320 831.890320,523.569519 
	C846.260254,516.207703 860.256714,508.122040 875.250000,501.143829 
z"/>
<path fill="#000000" opacity="1.000000" stroke="none" 
	d="
M322.688477,546.280640 
	C308.361908,529.589111 300.706635,510.631073 300.774414,488.920410 
	C300.910065,445.463837 332.830963,409.608948 376.303955,403.737305 
	C417.562927,398.164673 457.720642,424.931610 469.170685,465.352783 
	C471.986542,475.293365 472.647858,485.302429 472.311432,495.499603 
	C472.242401,497.592682 471.729492,499.320190 470.201172,500.878571 
	C462.735718,508.490753 458.778473,517.957886 458.703033,528.335449 
	C458.650116,535.607788 455.449890,540.630005 451.207458,545.549133 
	C434.260773,565.198669 412.710052,575.813660 386.827789,575.738403 
	C361.440521,575.664551 339.958832,565.620422 322.688477,546.280640 
M335.745880,480.347870 
	C342.658295,459.115753 356.752594,444.863037 377.630432,437.161621 
	C381.064362,435.894928 384.566406,433.979126 383.344818,429.707703 
	C382.116272,425.411926 378.280884,425.200623 374.287140,425.799561 
	C360.022064,427.938873 348.142181,434.499725 338.598724,445.157379 
	C329.292938,455.549652 324.481262,467.977325 323.233307,481.801239 
	C322.942535,485.022522 323.722260,487.988098 327.460815,488.682220 
	C331.189209,489.374451 333.418640,487.289764 334.656281,483.957520 
	C335.003723,483.022217 335.264465,482.054718 335.745880,480.347870 
M395.118866,558.171509 
	C398.079498,561.396118 401.433868,561.909546 404.794891,559.050842 
	C407.404724,556.831116 407.764252,553.767212 405.952881,550.914368 
	C403.973999,547.797546 400.781677,547.218689 397.576447,548.628601 
	C393.528687,550.409058 393.437744,553.822876 395.118866,558.171509 
z"/>
<path fill="#000000" opacity="1.000000" stroke="none" 
	d="
M497.121765,96.244690 
	C437.601501,99.659462 381.770691,114.542747 329.614746,142.722458 
	C289.793671,164.237656 254.756683,191.835220 224.484207,225.430588 
	C207.827576,243.915527 193.197540,263.951172 180.425858,285.323364 
	C178.961136,287.774445 177.462418,290.244019 174.702393,291.394928 
	C170.479980,293.155731 166.483551,292.649475 163.139450,289.420013 
	C159.765747,286.161957 159.391571,281.137207 162.117752,276.554504 
	C172.440506,259.201874 183.922516,242.647797 196.673920,226.991562 
	C236.023010,178.678513 283.776703,141.004929 340.145386,114.438049 
	C380.231628,95.545151 422.420166,83.898247 466.423615,78.534081 
	C482.822510,76.534981 499.278168,75.151505 515.723755,75.215302 
	C552.665161,75.358612 589.096680,79.945404 624.809082,89.852013 
	C698.301086,110.238724 760.915100,148.588806 812.650574,204.382767 
	C856.604065,251.784119 888.145630,306.579498 906.424377,368.710938 
	C914.235474,395.261566 919.664551,422.338898 921.437134,450.049744 
	C921.925598,457.685913 918.516663,462.476654 912.146240,462.929535 
	C906.381958,463.339264 902.323181,458.807770 901.627197,451.520477 
	C895.552490,387.920868 876.085876,328.877686 841.516541,274.970215 
	C797.381531,206.145859 737.564819,155.953796 662.189819,124.405640 
	C629.119568,110.564095 594.618530,102.124481 558.976013,98.088234 
	C538.541443,95.774185 518.093140,95.811752 497.121765,96.244690 
z"/>
<path fill="#000000" opacity="1.000000" stroke="none" 
	d="
M252.533051,481.627014 
	C256.288330,436.239014 276.904083,401.243530 314.337494,376.150055 
	C335.963013,361.653412 359.849396,354.195953 385.838623,353.965881 
	C439.612610,353.489746 486.696716,384.685303 507.731598,434.205200 
	C514.249756,449.550140 517.824524,465.499420 519.051392,482.065125 
	C519.331665,485.849579 518.230347,487.622131 514.123962,487.464905 
	C508.803253,487.261139 503.401611,487.041046 498.152527,487.727814 
	C493.456238,488.342255 492.100586,486.438477 492.056580,482.398438 
	C491.961487,473.665009 490.147430,465.254730 487.675415,456.905884 
	C475.584137,416.069122 437.997284,386.342987 395.628571,382.928833 
	C344.667694,378.822296 295.772675,411.640198 282.984467,466.237885 
	C269.081879,525.593140 310.985748,586.771301 371.516602,594.927002 
	C401.717102,598.996155 429.042511,591.926331 452.935638,572.630737 
	C454.196381,571.612610 455.326355,570.252197 457.720490,570.614990 
	C458.789673,573.480530 458.224640,576.636536 458.270813,579.696228 
	C458.356354,585.361023 457.935760,591.057129 458.395355,596.685486 
	C458.813965,601.812195 456.583710,604.480408 452.371948,606.910950 
	C404.531464,634.519043 343.608002,629.032776 301.506622,593.140991 
	C271.135223,567.249146 255.086548,534.150879 252.049652,494.551025 
	C251.731125,490.397644 251.776978,486.221130 252.533051,481.627014 
z"/>
<path fill="#000000" opacity="1.000000" stroke="none" 
	d="
M184.772034,706.254028 
	C219.605499,761.711914 264.496033,806.541016 320.372040,840.078918 
	C367.306000,868.249451 418.133881,885.426270 472.497833,891.802612 
	C552.031067,901.131165 627.076538,886.248657 697.435425,848.395081 
	C748.446716,820.950623 790.674622,783.282898 824.134155,735.904297 
	C824.807007,734.951538 825.441650,733.968384 826.164246,733.054749 
	C829.945190,728.273926 836.180115,727.295593 840.802063,730.733826 
	C844.950928,733.820129 845.770996,739.646912 842.440918,744.596436 
	C832.191467,759.830322 820.689148,774.086670 808.252930,787.581421 
	C776.299744,822.254395 739.174744,850.107483 697.126770,871.381226 
	C658.465942,890.941284 617.712158,904.175903 574.797058,910.161926 
	C474.461761,924.157471 381.675415,903.086060 296.659576,848.390930 
	C233.931152,808.034424 185.632874,754.285278 151.342712,688.000916 
	C150.271637,685.930542 148.962036,683.977966 147.970444,681.873047 
	C145.518204,676.667542 147.570633,670.717957 152.568146,668.217651 
	C157.749252,665.625488 163.289856,667.397156 166.061752,672.794739 
	C171.848526,684.063232 177.990128,695.127869 184.772034,706.254028 
z"/>
<path fill="#000000" opacity="1.000000" stroke="none" 
	d="
M836.541504,406.647522 
	C849.459167,430.079620 833.863403,454.281677 814.021484,457.774139 
	C812.067871,458.118011 810.051758,458.238831 808.064514,458.240173 
	C777.432861,458.260803 746.801086,458.290955 716.169617,458.215454 
	C702.382690,458.181488 691.119629,450.452087 688.615234,438.115356 
	C686.600952,428.193298 686.476562,417.862976 688.953064,407.920166 
	C691.450195,397.894775 702.633667,389.871063 714.004944,389.813263 
	C745.801025,389.651642 777.602234,389.496918 809.393494,389.925476 
	C821.132202,390.083710 830.200134,396.194214 836.541504,406.647522 
z"/>
<path fill="#000000" opacity="1.000000" stroke="none" 
	d="
M600.526367,423.707947 
	C607.185425,412.199463 617.710205,408.334564 629.766052,408.073547 
	C645.246216,407.738434 660.740173,408.093658 676.226196,407.945679 
	C680.704102,407.902924 682.490112,409.441010 682.294922,414.072052 
	C681.993896,421.218811 681.982849,428.400269 682.328125,435.543854 
	C682.558716,440.315643 680.631897,441.497833 676.199341,441.422943 
	C663.047058,441.200653 649.887207,441.453857 636.733154,441.293182 
	C631.594727,441.230408 628.590637,442.812134 627.987915,448.412659 
	C627.533081,452.638702 625.039795,456.490326 624.808105,460.704529 
	C626.250366,462.423157 628.016113,462.064026 629.620605,462.096252 
	C639.106079,462.286804 648.592224,462.519806 658.078857,462.555054 
	C673.684448,462.613037 686.569519,469.694702 698.777100,478.339874 
	C702.342590,480.864899 704.574951,484.615448 704.739258,489.095459 
	C702.658264,490.772919 700.581665,490.260803 698.648743,490.261780 
	C653.351990,490.284607 608.055176,490.273895 562.758423,490.257416 
	C555.662659,490.254822 555.662659,490.227966 555.637207,482.936401 
	C555.576965,465.677002 559.071655,462.175385 576.223999,462.079224 
	C586.356140,462.022400 585.318970,463.191559 589.082581,452.865906 
	C592.615051,443.174438 596.577698,433.639801 600.526367,423.707947 
z"/>
<path fill="#000000" opacity="1.000000" stroke="none" 
	d="
M788.728271,622.000000 
	C788.721252,594.004578 788.838806,566.508118 788.594482,539.014771 
	C788.549622,533.966064 790.064209,532.190674 795.057373,532.367004 
	C801.373474,532.590027 807.711365,532.259399 814.038025,532.096619 
	C817.683472,532.002808 819.396179,533.262512 819.385681,537.322632 
	C819.265564,583.647888 819.258972,629.973633 819.341614,676.299011 
	C819.349304,680.613220 817.757446,682.322754 813.474915,682.201599 
	C807.147827,682.022461 800.799683,681.923157 794.483398,682.242920 
	C789.661743,682.487061 788.580017,680.351685 788.624695,675.990479 
	C788.807312,658.161865 788.717712,640.330383 788.728271,622.000000 
z"/>
<path fill="#000000" opacity="1.000000" stroke="none" 
	d="
M219.000000,340.123566 
	C205.838882,340.126495 193.176376,340.023926 180.517471,340.192261 
	C176.434555,340.246552 174.974899,338.761414 174.888077,334.667694 
	C174.555893,319.007568 176.452988,316.901672 191.939026,316.898224 
	C207.099030,316.894836 222.259262,316.869232 237.418930,316.945587 
	C247.295013,316.995331 250.232178,320.017365 250.249756,329.805756 
	C250.268356,340.152618 250.268341,340.149414 239.991058,340.135071 
	C233.160706,340.125519 226.330353,340.126770 219.000000,340.123566 
z"/>
<path fill="#000000" opacity="1.000000" stroke="none" 
	d="
M190.059677,387.004883 
	C188.551620,395.349579 183.823547,400.584991 176.253662,401.932037 
	C168.108231,403.381500 160.523651,402.183075 155.064499,395.161621 
	C151.194855,390.184479 151.750885,382.376648 156.264786,377.655579 
	C161.953033,371.706238 169.000809,369.928131 176.860977,372.037354 
	C184.271866,374.025970 189.011749,378.706085 190.059677,387.004883 
z"/>
<path fill="#000000" opacity="1.000000" stroke="none" 
	d="
M731.320679,565.006287 
	C731.310059,600.663513 731.321838,635.821960 731.271851,670.980347 
	C731.253540,683.869446 722.188416,693.171570 709.355042,693.184814 
	C649.702393,693.246643 590.049561,693.247314 530.396912,693.157593 
	C517.455139,693.138123 508.618256,683.892090 508.617188,670.905212 
	C508.614075,632.914062 508.606323,594.922913 508.627777,556.931763 
	C508.636047,542.316162 517.194580,533.924194 532.158081,533.917236 
	C590.144470,533.890137 648.132324,534.114807 706.116333,533.744385 
	C720.617493,533.651794 732.807922,542.952209 731.335876,559.010315 
	C731.169189,560.827942 731.316833,562.674438 731.320679,565.006287 
M639.907166,672.459229 
	C665.913879,663.432129 684.676331,635.522217 680.694885,606.932495 
	C677.189148,581.758789 663.344238,564.134094 639.445190,555.796997 
	C615.593506,547.476501 594.053162,553.092285 576.113647,570.839233 
	C555.426208,591.304565 552.470093,622.316101 568.280518,647.961426 
	C582.623962,671.227173 612.458679,681.641907 639.907166,672.459229 
z"/>
<path fill="#000000" opacity="1.000000" stroke="none" 
	d="
M569.476929,596.674561 
	C584.445374,557.846252 630.945984,547.987671 658.508789,577.742798 
	C673.151733,593.550415 676.863831,612.511658 669.463623,632.517700 
	C661.935181,652.870422 646.741882,664.992126 624.747192,667.385071 
	C586.555176,671.540283 557.092896,633.769653 569.476929,596.674561 
M590.691040,623.322693 
	C592.437744,622.264221 592.973938,620.472900 593.261047,618.667847 
	C595.767456,602.912354 604.268494,592.309448 619.696960,587.490356 
	C622.485840,586.619263 625.282898,585.079346 624.488281,581.543701 
	C623.682922,577.960266 620.579895,577.324524 617.376465,577.629150 
	C596.924072,579.573792 581.789673,597.452759 583.299438,617.826111 
	C583.607605,621.985718 585.374451,624.447266 590.691040,623.322693 
M645.407043,633.415588 
	C641.222900,633.852051 638.879883,636.137024 639.561829,640.357300 
	C640.120239,643.812317 642.699402,645.346802 646.190613,644.783569 
	C648.735657,644.372925 650.437622,642.753723 650.725403,640.167236 
	C651.107483,636.734131 649.502014,634.447266 645.407043,633.415588 
z"/>
</svg>