<svg version="1.1" id="Layer_1" xmlns="http://www.w3.org/2000/svg" xmlns:xlink="http://www.w3.org/1999/xlink" x="0px" y="0px"
	 width="100%" viewBox="0 0 1024 656" enable-background="new 0 0 1024 656" xml:space="preserve">
<path fill="#000000" opacity="1.000000" stroke="none" 
	d="
M273.620697,341.995667 
	C273.524994,332.145172 273.761932,322.832947 276.527344,313.774811 
	C276.861603,312.679840 277.124634,311.415710 276.918091,310.325165 
	C273.874786,294.256195 278.874237,279.207947 283.480316,264.370483 
	C305.311188,194.047394 349.500336,142.903229 416.311127,111.635101 
	C436.463837,102.203430 457.491882,95.474068 479.666138,92.583107 
	C483.569611,92.074203 487.320160,92.761749 491.100464,93.056084 
	C504.063965,94.065445 516.952332,93.808861 529.809448,91.841377 
	C546.675232,89.260452 563.019226,92.569115 579.132446,96.848808 
	C629.866699,110.323906 672.531860,137.021957 706.584717,176.909653 
	C733.956238,208.971176 751.021362,246.188950 759.284119,287.523529 
	C769.618469,339.220795 763.460083,389.001099 741.225647,436.586182 
	C715.959290,490.659943 676.769958,531.567139 622.818970,557.690430 
	C596.505676,570.431458 568.580383,577.808167 539.446594,580.298950 
	C486.564545,584.819946 437.309753,572.975830 392.428925,545.045776 
	C333.903534,508.624420 295.868408,456.774841 279.745972,389.415771 
	C276.061737,374.023254 273.656189,358.396606 273.620697,341.995667 
M320.971558,245.438965 
	C314.651031,260.870728 309.368164,276.618256 306.024780,292.996796 
	C304.466461,300.630646 303.071686,308.392944 301.009766,315.801575 
	C299.061584,322.801544 298.744385,329.102478 300.789429,335.774780 
	C301.677307,338.671722 302.030090,341.615845 302.292450,344.615662 
	C303.554504,359.044128 305.303711,373.393188 309.020905,387.447540 
	C322.904358,439.939453 352.313141,481.703522 396.083069,513.533813 
	C399.110321,515.735291 402.141022,518.099548 406.259674,519.497314 
	C406.708160,515.154297 408.074982,511.328186 404.346130,508.078064 
	C397.448212,502.065735 393.226196,494.468842 391.486542,485.493225 
	C390.837646,482.145264 389.369659,479.292297 387.076965,476.704346 
	C384.299957,473.569702 383.120209,469.894073 384.196686,465.580750 
	C384.754517,463.345612 385.203979,460.888367 384.865601,458.658417 
	C383.403259,449.021179 386.339233,441.063690 392.912659,434.011902 
	C395.840973,430.870514 395.057587,429.257019 390.871002,428.317261 
	C384.191956,426.818024 377.638367,424.967346 371.414612,422.052979 
	C348.600708,411.370026 337.201263,385.679718 345.120361,361.768890 
	C350.410492,345.795929 360.327728,332.746338 372.178864,320.970184 
	C376.803101,316.375214 381.242523,311.589996 381.029602,303.964600 
	C380.908142,299.615051 382.792725,295.161041 384.888702,291.147583 
	C388.820618,283.618561 394.012787,276.645477 393.929504,267.511810 
	C393.905823,264.916290 395.898071,262.674316 398.180786,261.670197 
	C405.108032,258.622986 408.205811,253.004990 409.669525,246.045685 
	C409.871735,245.084244 410.358856,244.172104 410.783417,243.269760 
	C413.779877,236.900986 415.805237,236.400467 421.658447,240.639450 
	C423.851166,238.524918 424.945770,235.687790 426.463104,233.137985 
	C431.565277,224.563950 438.567627,221.487549 448.421600,223.292374 
	C458.572083,225.151505 466.687927,230.468262 473.219177,238.133133 
	C481.365875,247.693787 481.712799,254.665558 475.317810,265.409668 
	C473.698975,268.129395 472.066071,270.842712 470.530273,273.609283 
	C469.096008,276.192841 467.278320,278.697754 470.634338,281.442871 
	C471.946625,282.516266 471.716705,284.710144 470.946899,286.178802 
	C467.094025,293.529083 465.716827,302.047333 460.348389,308.669159 
	C457.697052,311.939545 455.896240,315.695465 454.100098,319.453094 
	C450.014893,327.999603 447.139587,337.153076 441.248688,344.799225 
	C440.591675,345.651947 440.423157,346.949738 440.223389,348.075745 
	C436.860474,367.030823 436.099701,386.120361 437.490540,405.297577 
	C437.675903,407.853149 437.709503,410.565033 439.377380,413.387482 
	C443.030457,410.403778 443.882141,406.134552 446.072876,402.748108 
	C449.162994,397.971344 451.571472,393.505493 445.061829,389.383667 
	C443.571228,388.439789 442.863739,386.363037 443.634613,384.421356 
	C444.500702,382.239990 446.519531,382.620300 448.342682,382.529358 
	C451.014740,382.396088 453.936890,383.722382 456.551758,381.253998 
	C455.431610,378.021851 452.509003,377.356110 449.972595,376.424469 
	C446.352539,375.094849 443.543518,373.046478 441.925598,369.444977 
	C441.185974,367.798523 439.726593,366.284607 441.081635,364.397339 
	C442.342773,362.640869 444.260162,362.893890 446.109894,363.100311 
	C450.846558,363.628906 455.584808,364.143494 460.322418,364.663666 
	C458.329102,362.412842 455.992615,360.943695 453.646637,359.489807 
	C450.117218,357.302429 447.490021,354.476685 446.612885,350.232941 
	C445.573853,345.205658 446.779388,344.037903 451.737610,345.630096 
	C457.119965,347.358490 462.472687,349.180267 467.825134,351.000122 
	C469.425293,351.544189 471.040649,352.299286 472.462677,350.792603 
	C474.084045,349.074677 472.578735,347.738861 471.718475,346.389679 
	C470.276001,344.127472 468.929382,341.821533 468.619293,339.098511 
	C468.314941,336.425690 467.894928,333.329132 470.412842,331.752563 
	C473.069977,330.088928 474.822815,333.099304 476.889832,334.246429 
	C477.459259,334.562500 477.959290,335.057800 478.392029,335.556763 
	C480.432892,337.909912 482.286011,338.014954 484.655273,335.730347 
	C488.451416,332.069824 493.261505,330.104828 498.262817,328.627533 
	C504.011017,326.929565 509.687286,324.890961 515.531372,323.637421 
	C524.479858,321.717987 529.505493,315.075287 534.871582,308.710602 
	C536.244507,307.082153 535.915100,305.272003 535.308289,303.506012 
	C534.550415,301.300323 532.712097,302.110596 531.097168,302.017426 
	C524.899109,301.659760 518.874756,300.432739 513.297668,297.593933 
	C511.753143,296.807709 509.844788,296.165863 509.626282,293.925751 
	C517.116211,293.351196 518.160706,292.712616 519.171021,288.073730 
	C517.448853,286.669861 515.369263,287.210052 513.433533,287.141815 
	C498.913177,286.629517 495.005188,282.819336 494.347992,268.447968 
	C494.325287,267.951294 494.184052,267.461151 494.135193,266.964325 
	C493.163269,257.086121 489.845551,248.655411 482.512207,241.264221 
	C469.299835,227.947586 469.384277,216.851166 481.717926,202.915756 
	C485.637177,198.487534 486.176941,194.019180 484.374054,188.653885 
	C481.972534,181.507202 480.378540,174.241837 482.289948,166.606888 
	C488.532959,141.669937 512.914307,125.965569 538.322693,130.455246 
	C547.006226,131.989609 555.752136,133.066208 564.556458,133.865341 
	C574.827209,134.797577 585.230774,136.059998 593.620850,143.055283 
	C597.639160,146.405579 602.136414,148.689835 606.844299,150.893768 
	C615.089478,154.753632 622.027649,160.454956 627.409546,167.908966 
	C637.008789,181.203964 641.235962,196.172531 641.273376,212.441101 
	C641.285217,217.598007 640.956482,222.776749 641.336365,227.904556 
	C641.601196,231.479843 644.021851,234.019424 647.560608,234.954697 
	C651.494141,235.994278 651.342468,232.140945 652.815491,230.236206 
	C652.977417,230.026779 653.390015,230.011292 653.872986,229.839493 
	C656.243164,233.604874 655.698303,237.406433 654.026306,241.199982 
	C653.077698,243.352463 652.127808,245.349060 653.286316,247.829559 
	C658.000488,257.922394 654.463135,266.198486 647.395630,273.652985 
	C646.581543,274.511658 644.953552,275.129272 646.042603,276.851074 
	C649.572449,277.671356 649.232483,272.854553 652.066833,272.677795 
	C653.132080,276.884033 652.176208,282.048828 647.600159,284.748810 
	C639.350647,289.616150 631.745300,295.297333 623.962708,300.782074 
	C622.299316,301.954285 619.615479,301.468170 618.614990,303.826874 
	C621.152771,309.168304 626.270386,314.473694 631.029907,316.959198 
	C644.316711,323.897797 657.588623,330.864990 670.844788,337.861847 
	C679.187073,342.264984 683.973938,349.315887 686.271118,358.358978 
	C688.789551,368.272797 689.845947,378.377747 689.853394,388.522400 
	C689.870789,412.424652 686.624634,435.965546 681.008789,459.188477 
	C679.134644,466.938660 677.313599,474.701630 675.157532,483.765106 
	C677.385925,481.958557 678.618835,481.295227 679.391418,480.281158 
	C687.761841,469.293518 696.976501,458.895782 703.578796,446.653320 
	C708.480347,437.564484 713.137085,428.343781 717.931580,419.196869 
	C718.924072,417.303528 719.723572,415.181152 722.549316,415.343994 
	C726.220886,415.555573 726.388916,412.922943 725.541321,410.633545 
	C723.397217,404.842407 725.294434,399.538910 726.695862,394.050079 
	C730.655640,378.541382 733.794983,362.855591 734.671143,346.844818 
	C736.359985,315.985046 731.604492,286.076111 720.524597,257.221161 
	C700.629578,205.409607 666.030823,166.447617 616.921082,140.816727 
	C578.880188,120.962723 538.202087,113.725914 495.448700,118.207085 
	C467.767212,121.108505 441.580139,128.849731 417.170837,142.203659 
	C373.976196,165.834747 341.980377,200.038681 320.971558,245.438965 
M633.020020,391.445740 
	C630.584656,398.336639 627.640137,405.089478 626.773865,413.455627 
	C634.019958,404.091461 639.440735,394.622894 647.126953,386.856354 
	C641.028931,403.437134 628.667175,416.831116 623.682068,434.048492 
	C634.707581,423.473999 643.614319,411.119141 655.170105,399.506622 
	C654.820679,403.356873 653.227356,404.937225 652.117432,406.736969 
	C644.576355,418.964355 634.921204,429.643524 626.701904,441.374908 
	C620.890564,449.669586 616.543335,458.589142 614.600769,468.970428 
	C622.140320,467.192047 627.680298,462.122223 634.701111,460.758698 
	C628.442749,467.834503 619.187195,470.933289 612.815735,477.898163 
	C619.330994,478.873352 625.461487,479.140167 631.309143,481.307495 
	C638.874146,484.111389 643.735657,487.961395 644.731995,492.545563 
	C638.378967,489.490265 632.380676,485.884064 624.043762,485.895142 
	C633.022522,492.404877 639.542542,499.637756 642.441772,509.647949 
	C637.131042,504.285797 632.553955,498.153656 624.905457,494.563049 
	C628.592529,502.508606 632.346558,509.831268 632.756226,519.068726 
	C642.933289,513.166687 651.055908,506.628571 658.934753,499.729645 
	C661.142822,497.796204 662.611694,495.559601 663.587524,492.808899 
	C671.798279,469.663483 677.113037,445.806061 680.515625,421.551331 
	C682.945496,404.230591 683.883179,386.795959 681.705261,369.301300 
	C680.179077,357.042175 675.799194,346.946381 663.829651,341.301575 
	C655.101318,337.185394 646.648743,332.484924 638.071167,328.048859 
	C633.705200,325.790924 629.455383,323.250916 623.995178,321.768402 
	C620.656982,338.460999 617.421143,354.642303 614.122803,371.135864 
	C607.446228,369.410278 602.226135,366.745087 597.407349,363.585846 
	C593.168335,360.806671 591.022217,361.869690 588.857361,365.921692 
	C582.067688,378.630127 573.251221,389.916473 563.800842,400.722351 
	C562.303650,402.434387 561.124207,404.711884 557.318604,405.508942 
	C563.534729,396.257629 570.082092,388.563110 575.088440,378.427521 
	C569.648804,381.027191 566.422546,384.418365 562.950806,387.376678 
	C547.971069,400.140900 533.579529,413.286652 532.716370,435.117493 
	C532.606506,437.894897 532.686523,439.756989 534.990051,441.560577 
	C546.010010,450.188904 556.939758,458.930664 568.458984,466.899536 
	C570.132751,468.057434 571.785950,469.281555 573.949219,468.684052 
	C577.537231,467.692963 580.854431,468.755280 584.214600,469.769012 
	C585.876831,470.270508 587.567627,471.532410 589.313293,469.959137 
	C590.338379,467.163361 587.030701,465.148438 588.150940,461.740387 
	C590.648315,463.315857 592.942566,464.804504 595.276855,466.227203 
	C600.335938,469.310486 602.349304,468.875793 605.113525,463.487030 
	C608.004211,457.851593 610.141174,451.890015 611.625671,445.710663 
	C614.656677,433.093933 616.901245,420.289429 620.732971,407.863556 
	C626.437378,389.364929 634.597290,372.177429 647.593079,357.588989 
	C649.509583,355.437561 651.425171,353.104553 656.141724,352.093567 
	C645.300903,364.181580 638.634827,377.079620 633.020020,391.445740 
M558.115051,184.789703 
	C556.817078,180.039917 554.916016,175.790451 550.404236,173.031097 
	C547.952271,171.531448 546.641296,168.854996 545.670471,166.137360 
	C545.068298,164.451508 544.043518,163.523514 542.159851,163.062241 
	C534.630737,161.218491 527.444092,162.889496 520.273743,164.862579 
	C517.655029,165.583160 515.466919,167.085571 513.622009,169.111450 
	C507.316498,176.035553 504.538269,184.749023 500.823456,192.919968 
	C508.715027,198.059265 511.159607,207.486771 504.072784,214.433502 
	C502.647583,215.830566 501.269257,217.286438 499.750061,218.574600 
	C493.872375,223.558655 493.848907,223.978912 498.791412,230.165833 
	C500.002045,231.681259 502.420319,233.021881 500.475403,235.428055 
	C498.120758,236.322083 497.171326,232.909103 494.743408,233.989746 
	C493.850769,236.526047 493.940430,239.065399 494.827454,242.203781 
	C507.235748,235.937927 513.251221,245.850983 522.098755,252.364059 
	C514.112976,256.786865 510.007202,265.750336 499.786652,264.730560 
	C497.341339,277.576355 500.602020,281.635284 513.702332,280.584167 
	C527.373047,279.487274 540.651428,276.230774 553.398560,271.180298 
	C562.560120,267.550476 569.359131,261.065155 573.851440,252.238632 
	C575.442200,249.113113 577.132263,247.448288 581.253052,249.204468 
	C585.876221,251.174759 591.751160,248.078888 595.148621,242.953445 
	C593.222656,239.655426 590.566772,239.779404 587.488892,241.207474 
	C585.690247,242.042038 583.626770,243.056046 581.919922,241.272614 
	C579.891296,239.152954 582.281433,237.751968 583.102478,236.089508 
	C584.683960,232.887543 585.248779,230.514297 580.140320,230.219864 
	C575.954529,229.978622 573.546936,226.619049 571.854065,223.039993 
	C569.758179,218.608856 569.085449,213.806274 568.746094,208.980591 
	C568.420837,204.357056 567.004700,200.361496 563.977478,196.682922 
	C561.315063,193.447662 557.814514,190.398682 558.115051,184.789703 
M481.769165,372.734009 
	C485.263214,377.477325 489.789978,381.582275 491.382843,387.573181 
	C488.515869,387.018799 486.686523,385.187561 485.329681,383.252167 
	C478.806335,373.947083 468.598236,371.865601 458.660156,369.117310 
	C455.589661,368.268188 453.234222,368.814240 451.152466,371.967194 
	C458.617035,374.557465 466.069427,376.750336 472.336578,381.161621 
	C478.541656,385.529175 482.351715,392.057983 486.035828,398.672028 
	C480.051849,396.904358 476.289276,391.343781 470.528076,389.936737 
	C465.195404,388.634277 459.688843,385.182983 453.160828,388.669922 
	C455.878510,391.361725 458.803375,391.693085 461.325073,392.788971 
	C471.367096,397.152924 479.268219,403.452515 482.116608,414.704620 
	C483.667145,420.829681 485.473267,426.898102 487.390045,432.920135 
	C489.525238,439.628632 493.240417,445.167816 499.598419,448.739532 
	C503.264862,450.799225 506.068695,453.944000 508.757263,457.151215 
	C525.036987,476.571411 541.903564,495.446014 560.519470,512.687805 
	C562.186035,514.231384 563.550049,516.293030 566.664978,516.477112 
	C571.180420,508.155670 573.120728,498.982941 574.745483,489.656799 
	C576.018616,482.349060 573.359558,477.583771 567.199646,473.468292 
	C552.783813,463.836914 539.599976,452.579498 526.342773,441.402191 
	C517.397034,433.859955 512.680298,424.670624 510.527740,413.431854 
	C507.605927,398.177246 505.932800,382.749054 498.878113,368.284424 
	C494.775085,359.871704 490.233490,352.359833 483.870056,345.689911 
	C481.100067,342.786469 478.152557,340.856293 472.921936,341.441406 
	C484.109192,353.007019 491.877014,366.158234 498.704956,379.936188 
	C495.398315,378.969818 493.592926,376.470062 492.068573,374.027130 
	C485.416687,363.366547 474.930573,358.138184 463.948334,353.465820 
	C460.774231,352.115387 457.977631,351.865143 455.409058,354.684875 
	C457.169312,356.978455 459.684662,357.857239 462.053375,359.054077 
	C469.038940,362.583618 475.825104,366.447571 481.769165,372.734009 
M578.948059,261.029907 
	C579.742004,258.718933 579.256897,257.129669 576.411743,256.699615 
	C576.010803,257.178406 575.394226,257.609406 575.208984,258.180359 
	C570.623291,272.315125 560.627991,282.103271 549.275269,290.898438 
	C545.528625,293.801056 543.855103,297.918213 544.082031,302.775940 
	C544.432068,310.267853 545.827026,317.619537 546.845154,325.023834 
	C547.315674,328.446045 548.604065,332.482422 545.843933,335.038055 
	C542.593506,338.047546 541.559021,341.726959 540.711853,345.561554 
	C537.047729,362.146423 538.396362,379.005005 538.254333,395.778992 
	C538.252258,396.019318 538.624268,396.262787 538.820007,396.502686 
	C539.852966,396.563110 540.265442,395.785065 540.652710,395.091949 
	C551.483704,375.707031 565.715698,358.639557 577.983521,340.236847 
	C584.816284,329.987183 591.147339,319.417542 595.981079,308.035156 
	C596.685364,306.376709 598.059570,304.358795 596.878784,302.848969 
	C593.828796,298.948914 591.839294,294.126312 587.718567,291.165161 
	C576.587585,283.166534 574.018677,275.011993 578.948059,261.029907 
M359.028748,353.556030 
	C351.077240,367.878113 349.360321,382.373444 357.869965,397.125610 
	C365.728394,410.748810 378.687317,416.010315 393.245758,418.608765 
	C396.750122,419.234253 397.017181,416.553833 397.269318,414.285645 
	C398.479340,403.399689 399.807922,392.517059 400.581360,381.596893 
	C400.928314,376.697968 401.346771,371.926178 398.330048,366.883728 
	C396.265503,363.432892 397.391846,357.768555 397.870148,353.174805 
	C398.530609,346.831757 396.620056,341.419861 393.455719,336.183044 
	C390.728973,331.670319 389.525543,331.387360 385.290741,334.464966 
	C380.449066,337.983673 375.580017,341.464813 370.747223,344.995605 
	C367.018036,347.720123 362.379700,349.143738 359.028748,353.556030 
M462.302826,545.032654 
	C464.537476,545.675293 466.755249,546.385315 469.009491,546.949707 
	C484.521698,550.833984 484.470612,550.802246 490.552246,535.953369 
	C491.697540,533.157043 491.861664,531.056152 489.290985,528.929016 
	C483.622559,524.238464 481.615723,517.965088 481.694153,510.740326 
	C481.770264,503.727081 480.904663,496.815399 478.303772,490.206879 
	C475.042053,481.919250 473.840973,481.655273 467.959473,488.281616 
	C458.240295,499.231720 446.326721,506.895020 432.598572,511.734100 
	C423.268463,515.022949 423.380310,514.880859 423.247009,525.119080 
	C423.198059,528.875793 424.610016,530.841675 427.924713,532.323853 
	C438.862946,537.215027 449.912140,541.763428 462.302826,545.032654 
M591.307739,479.264252 
	C589.627808,478.543427 587.969910,477.764832 586.263733,477.112701 
	C581.399536,475.253571 580.241455,476.011169 580.272644,481.108307 
	C580.306213,486.593170 580.288818,492.052124 579.342834,497.497314 
	C577.604004,507.506134 575.823608,517.511292 570.531372,526.386169 
	C567.602417,531.298035 564.589661,531.375305 561.205933,526.935913 
	C561.226257,530.850098 563.945557,532.582642 566.706543,534.085083 
	C570.352478,536.069092 574.161987,537.749939 577.867432,539.627502 
	C586.012085,543.754517 595.292603,541.089233 599.752808,533.037292 
	C605.340271,522.950256 607.847839,512.040588 607.898743,500.521912 
	C607.953674,488.105713 606.440430,485.690552 595.238037,480.900299 
	C594.168274,480.442871 593.096130,479.991119 591.307739,479.264252 
M506.208008,501.768921 
	C506.474548,508.951965 505.908051,516.071411 504.515930,523.120605 
	C503.266907,529.445068 504.236420,530.385620 510.750031,529.070801 
	C511.312866,527.498596 508.496857,526.325256 510.337250,524.451233 
	C514.878723,525.872437 518.697693,529.659851 524.712769,529.437134 
	C522.749634,523.283752 521.318054,517.502441 521.990234,511.468933 
	C522.543091,506.505981 523.239502,501.538513 523.397583,496.557983 
	C523.549255,491.781128 524.386108,486.281708 521.433838,482.495026 
	C513.869202,472.792450 506.925110,462.091949 496.900604,454.977875 
	C485.822998,447.116425 481.066650,436.624725 478.654114,424.172089 
	C478.107025,421.348328 477.760803,418.346710 475.138885,415.716217 
	C472.276764,421.789246 470.894958,427.678253 470.126892,433.786316 
	C469.658661,437.510162 470.921844,439.950897 474.002228,442.192474 
	C482.157166,448.126801 488.806122,455.519989 494.188019,464.106293 
	C501.255310,475.381409 504.323761,487.893341 506.208008,501.768921 
M597.371094,355.072876 
	C601.116821,357.381866 604.436401,360.482147 608.705750,361.549896 
	C610.112427,360.443604 610.440979,359.154755 610.706665,357.848022 
	C613.353699,344.830048 616.005005,331.812927 618.623535,318.789185 
	C619.072571,316.556061 618.615356,314.559662 616.999878,312.788818 
	C614.760254,310.333801 612.780029,307.638123 610.493896,305.230530 
	C607.162720,301.722290 605.702271,301.957153 603.496643,306.247192 
	C596.956787,318.967468 590.363037,331.651550 582.477600,343.619110 
	C581.378906,345.286591 579.825745,346.971832 580.262329,349.722076 
	C587.335510,346.798798 591.716309,351.756561 597.371094,355.072876 
M428.803436,350.874207 
	C428.909271,355.534668 429.039307,360.194733 429.109924,364.855713 
	C429.141418,366.935730 428.868835,369.089874 426.479248,369.688446 
	C423.147705,370.522949 423.261230,372.933624 423.268677,375.515350 
	C423.303284,387.508118 423.281799,399.501038 423.287079,411.493896 
	C423.288269,414.158783 423.078308,416.851288 423.383575,419.482574 
	C423.958801,424.440338 428.332550,422.963226 431.233612,423.533417 
	C433.614777,424.001373 433.665283,421.954193 433.366669,420.140869 
	C430.231964,401.104889 430.549011,382.031067 432.824615,362.947021 
	C433.992523,353.152222 432.787384,342.649872 441.546295,335.119049 
	C443.055389,333.821625 443.628601,331.370117 444.481354,329.386047 
	C448.497589,320.041595 452.825043,310.872925 458.724518,302.522614 
	C462.580322,297.065063 463.186157,290.220215 466.778931,284.596161 
	C463.806458,285.059784 462.633759,287.074768 461.679077,289.117493 
	C455.748077,301.808044 447.124786,311.616364 433.563446,316.562378 
	C430.244019,317.773041 428.395142,320.826447 428.395111,324.471710 
	C428.395081,332.962128 428.578827,341.452576 428.803436,350.874207 
M712.175598,478.730682 
	C717.258850,471.088104 722.170898,463.408691 722.497192,453.750580 
	C722.548706,452.225159 723.667236,450.647675 724.547485,449.255524 
	C726.778076,445.727600 728.770325,442.089935 730.365967,438.231079 
	C731.427734,435.663452 733.574097,432.619202 729.938599,430.878143 
	C726.796875,429.373627 724.161133,431.772736 722.470886,434.313507 
	C720.823669,436.789459 719.485596,439.543091 718.447998,442.336792 
	C716.601562,447.308167 712.879089,450.686707 708.736755,453.365967 
	C705.132080,455.697449 702.868225,458.703552 701.383240,462.477783 
	C699.341675,467.666321 696.373230,472.160736 692.482422,476.182404 
	C688.021851,480.793030 685.691956,486.429993 686.072998,492.945435 
	C686.391174,498.387909 689.755920,500.640137 694.032471,497.565857 
	C700.953918,492.590363 708.798584,488.257233 712.175598,478.730682 
M517.127563,418.463043 
	C518.813904,424.950867 521.316284,430.876068 527.996338,434.618683 
	C530.217896,426.279541 530.444702,418.374084 529.105713,410.488556 
	C526.896912,397.481445 522.679626,385.052032 517.757874,372.833405 
	C515.588196,367.446777 512.394043,362.154877 515.597351,355.071167 
	C511.594238,356.803009 508.782898,358.253479 505.818054,359.244751 
	C501.780182,360.594727 500.956573,362.556580 502.671753,366.656494 
	C506.747375,376.398804 511.974182,385.689514 512.637329,396.741150 
	C513.060608,403.795898 514.781799,410.848389 517.127563,418.463043 
M544.858948,507.644928 
	C539.914490,502.453552 534.970032,497.262177 529.120300,491.120300 
	C529.414917,500.488892 528.197021,508.203827 527.621033,515.966309 
	C526.988708,524.487610 532.955505,532.646179 540.023682,533.503906 
	C543.645691,533.943420 547.311218,534.036011 550.959351,534.244995 
	C553.707947,534.402466 555.072998,533.187073 554.545837,530.340454 
	C553.056213,522.296570 553.084106,513.615723 544.858948,507.644928 
M534.594788,341.146362 
	C535.664490,337.772491 532.791138,339.099823 531.316895,338.746124 
	C532.003357,331.262634 535.115662,324.565948 536.145569,317.241974 
	C526.124695,326.579285 519.437744,338.336975 511.641205,349.727325 
	C514.816650,349.060028 515.450073,344.607086 518.909729,345.407410 
	C520.506592,347.333221 518.041870,349.634857 520.184448,351.389709 
	C523.608948,352.124695 523.075745,348.108398 524.842285,346.875763 
	C527.900879,349.075958 528.104431,349.284149 525.076843,352.243774 
	C520.481934,356.735596 519.294006,361.368195 522.144287,367.440521 
	C524.530273,372.523499 525.923401,378.072693 527.752319,383.416748 
	C528.891052,386.744171 528.991760,390.434204 531.560608,394.643860 
	C532.616272,376.232483 533.600769,359.061523 534.594788,341.146362 
M457.177643,396.891174 
	C454.349579,400.943848 452.609955,405.485687 450.480164,410.161682 
	C454.114258,411.244354 457.166962,408.391510 460.207397,410.359131 
	C459.113953,412.696289 456.901550,412.632172 455.118652,413.205383 
	C451.332428,414.422729 447.394501,415.253418 444.300476,418.010864 
	C439.964844,421.874908 440.440857,424.993530 445.762299,427.243439 
	C449.579407,428.857361 453.564880,430.126801 457.238525,432.011353 
	C461.034302,433.958618 462.568848,432.613403 463.564911,428.972382 
	C465.182800,423.058319 467.023621,417.204865 468.794983,411.333282 
	C470.764893,404.803680 470.060394,402.691132 464.196228,399.147552 
	C462.249390,397.971130 460.206696,396.762512 457.177643,396.891174 
M423.627655,504.470795 
	C425.915771,506.958740 428.341827,505.327301 430.487915,504.432648 
	C437.425934,501.540253 443.739471,497.500519 449.943298,493.289490 
	C457.976715,487.836609 459.640320,471.744995 452.448059,463.880341 
	C452.019196,469.711548 452.234894,475.179810 450.518585,480.414856 
	C448.306427,487.162292 444.991943,491.596497 440.578796,492.920013 
	C441.275909,487.753296 446.026978,483.363739 443.728821,477.053284 
	C439.841278,479.510254 436.761078,482.546112 433.122528,483.541992 
	C424.038025,486.028534 422.300140,492.117371 423.319855,500.196594 
	C423.464935,501.346008 423.393646,502.522736 423.627655,504.470795 
M494.564178,521.952698 
	C502.585480,493.168213 483.516205,458.161316 471.209900,454.522247 
	C475.612610,470.905029 487.759155,483.813690 491.578125,500.304504 
	C489.517639,500.865143 489.237244,498.674011 487.678894,499.555817 
	C488.218689,504.626007 488.639709,509.746002 489.349731,514.825562 
	C489.795990,518.017944 490.318176,521.380798 494.564178,521.952698 
M423.344604,473.397400 
	C423.697876,475.946198 422.622803,478.672546 424.160339,481.090240 
	C442.067657,476.750336 450.257874,454.450195 441.459320,444.069519 
	C439.515015,444.398590 439.028717,446.168823 438.201538,447.526917 
	C435.938202,451.242828 433.518402,455.158508 429.936859,457.363586 
	C423.928009,461.063080 422.423462,466.066650 423.344604,473.397400 
M612.253906,517.709839 
	C610.715637,522.470459 609.177368,527.231079 607.352905,532.877502 
	C615.701904,529.674438 622.429016,525.766602 629.051270,521.660461 
	C630.527039,520.745422 630.877686,519.412903 630.188171,517.774170 
	C627.160706,510.579224 624.669495,503.117340 619.935425,496.765839 
	C618.388306,494.690155 616.733398,492.646332 613.482361,491.490082 
	C614.578064,498.787964 615.677429,505.494202 615.161804,512.262573 
	C615.013855,514.204407 616.007019,516.998413 612.253906,517.709839 
M509.748871,343.283997 
	C512.413696,338.603912 516.194580,334.588898 518.731812,328.542236 
	C510.931213,330.983093 503.993164,333.077545 497.111816,335.344208 
	C494.287872,336.274384 491.443573,337.339752 489.321289,339.596344 
	C488.036560,340.962463 486.729950,342.518341 488.389984,344.360382 
	C492.421173,348.833588 496.931549,352.869781 500.149170,358.858490 
	C503.641235,353.194214 506.505463,348.548340 509.748871,343.283997 
M422.895447,361.712982 
	C416.001770,358.329651 414.855042,352.465088 415.517334,345.519501 
	C415.942200,341.063629 415.733490,336.538086 415.642761,332.047150 
	C415.609497,330.401764 416.510956,327.914673 413.787231,327.627472 
	C411.193481,327.353943 411.067749,329.743500 410.948639,331.487885 
	C410.269836,341.430359 409.099121,351.346039 409.260590,361.338348 
	C409.298279,363.670197 410.215637,365.598541 412.596893,365.390839 
	C416.269470,365.070496 420.475494,367.774078 423.546112,363.745300 
	C423.743622,363.486176 423.388641,362.805939 422.895447,361.712982 
M444.033661,233.045975 
	C440.743774,231.870468 437.589355,229.489349 433.770264,231.864471 
	C434.101532,234.256500 434.425171,236.665878 431.282867,237.425186 
	C430.633270,237.582153 430.178680,237.646118 430.088959,238.613113 
	C429.724548,242.540802 427.960052,245.662125 425.049591,248.482025 
	C423.547607,249.937225 423.265778,252.651779 422.423737,254.820206 
	C424.040985,255.404388 425.261688,255.874298 426.646118,255.154068 
	C426.040497,252.864990 425.117279,250.380371 428.855255,250.046387 
	C430.427185,249.905945 429.549377,249.195557 429.381348,248.454636 
	C428.548950,244.784134 431.021698,244.600113 433.521637,244.856094 
	C435.162628,245.024124 436.755890,245.658752 438.985168,246.246445 
	C437.355804,244.495071 435.745819,244.574402 434.396790,244.017258 
	C433.325928,243.574982 432.172455,243.066696 432.114502,241.660477 
	C432.002045,238.931625 438.695312,233.650436 441.435425,234.286163 
	C449.953857,236.262543 456.444824,241.409500 462.256592,247.973785 
	C463.148956,246.430954 464.057373,245.209320 464.600983,243.842575 
	C465.520691,241.530396 467.725494,239.313675 465.049194,236.630707 
	C461.414215,232.986633 455.259521,230.449173 452.688660,232.466888 
	C449.851837,234.693375 447.422546,234.276184 444.033661,233.045975 
M400.004913,479.539520 
	C401.920502,480.344238 403.612793,482.000763 406.364807,481.057922 
	C406.664032,474.922546 408.685974,469.050446 401.132172,464.454010 
	C394.451385,460.388794 393.283875,452.268738 392.468414,444.317993 
	C389.738098,447.111237 390.101990,449.998444 390.733704,452.929504 
	C391.395050,455.997864 392.257385,458.982819 391.630615,462.242889 
	C389.807343,471.726837 390.858154,473.859344 400.004913,479.539520 
M435.209534,281.270416 
	C428.396515,276.243164 421.660828,271.022675 411.290894,271.492035 
	C414.337921,274.881897 417.385681,276.132111 420.364075,276.442383 
	C423.405792,276.759247 424.106171,277.766754 423.581573,280.482178 
	C422.697723,285.057251 424.309509,288.940918 427.081512,292.489868 
	C428.947418,294.878845 431.132141,295.284302 433.581085,293.564819 
	C438.208740,290.315643 440.730713,285.661407 442.332397,280.191895 
	C440.300446,282.029358 438.420624,283.614014 435.209534,281.270416 
M570.575867,360.072601 
	C564.647400,368.936951 557.418335,376.951752 552.001892,387.553650 
	C553.746887,386.822174 554.441345,386.711090 554.886169,386.317688 
	C561.739197,380.256958 568.829834,374.429504 575.286438,367.969391 
	C579.156250,364.097504 577.835144,358.885895 577.140991,353.749573 
	C573.687378,354.887085 572.703552,357.561768 570.575867,360.072601 
M423.301636,437.840485 
	C423.544312,443.024536 422.751648,448.294189 424.226562,454.548126 
	C429.539886,450.059296 432.774689,445.432770 434.957825,439.992645 
	C436.166870,436.979889 435.816620,434.519012 432.057648,434.253601 
	C428.907623,434.031128 424.290070,429.877869 423.301636,437.840485 
M406.861176,447.481171 
	C406.836517,443.009064 406.828735,438.536804 406.778870,434.064972 
	C406.759308,432.308197 406.415222,430.723785 404.235901,430.442719 
	C402.064453,430.162659 401.236755,431.450775 400.974365,433.291870 
	C399.968079,440.352753 399.039154,447.425781 401.233704,454.439636 
	C402.015381,456.937958 403.082123,459.268799 406.857971,460.308563 
	C406.857971,455.976440 406.857971,452.222534 406.861176,447.481171 
M448.318512,293.195221 
	C446.454041,291.436066 444.589569,289.676941 442.340668,287.555084 
	C440.016632,292.952911 435.198883,295.397614 431.039551,298.589783 
	C436.056885,302.857239 441.060242,304.188141 445.354065,302.578125 
	C450.090363,300.802124 451.361816,297.535553 448.318512,293.195221 
M413.683655,488.499817 
	C413.683655,470.844849 413.683655,453.189880 413.683655,435.534882 
	C413.338501,435.539520 412.993347,435.544189 412.648193,435.548828 
	C412.648193,464.769012 412.648193,493.989227 412.648193,523.209412 
	C412.991150,523.210938 413.334076,523.212463 413.677032,523.213989 
	C413.677032,511.975922 413.677032,500.737854 413.683655,488.499817 
M393.937500,286.688568 
	C399.665131,286.837006 404.619965,289.082367 409.234741,292.285614 
	C410.601105,293.234039 412.007843,294.356476 413.455780,292.320007 
	C414.893036,290.298615 414.598389,288.611267 412.515900,287.312927 
	C409.292694,285.303406 406.095184,283.239258 402.771301,281.407776 
	C397.289764,278.387390 395.001953,279.621216 393.937500,286.688568 
M386.535828,304.954834 
	C389.704865,303.607849 390.977051,300.845886 391.481934,297.923279 
	C396.081543,296.948212 399.917267,299.272583 403.945801,299.481384 
	C405.506683,294.967865 405.227081,294.179962 401.737701,292.771637 
	C392.362366,288.987640 388.192169,291.174072 386.286346,300.984985 
	C386.044434,302.230560 385.340973,303.516083 386.535828,304.954834 
M405.337677,388.709778 
	C404.417145,397.795563 403.506073,406.882355 402.568268,415.966370 
	C402.375366,417.834747 401.986786,419.871918 404.562500,420.274078 
	C406.810638,420.625153 406.822784,418.790649 406.825958,417.293427 
	C406.852631,404.669098 406.841187,392.044647 406.841187,379.420258 
	C406.640350,379.417389 406.439514,379.414490 406.238678,379.411621 
	C405.950073,382.206573 405.661469,385.001495 405.337677,388.709778 
M453.396118,446.394073 
	C452.615265,445.833649 451.975311,444.945526 450.608307,445.328979 
	C449.820343,447.165955 450.747650,448.707703 451.687897,450.255096 
	C454.256439,454.482239 456.809845,458.718658 459.385864,462.941254 
	C460.133484,464.166748 460.753693,466.002838 462.635315,465.080200 
	C464.316071,464.256042 463.784088,462.470428 463.354279,461.087067 
	C461.594116,455.422333 458.219177,450.799683 453.396118,446.394073 
M404.391052,269.609985 
	C405.714935,264.447418 411.464478,268.444427 413.863495,265.310089 
	C408.538055,259.937592 406.858978,259.974792 400.630768,265.412262 
	C397.440979,268.197083 397.212860,271.650940 400.167969,275.305878 
	C401.457611,273.580200 402.709229,271.905457 404.391052,269.609985 
M468.724243,241.157471 
	C467.222961,244.243393 465.721710,247.329330 464.048889,250.767838 
	C466.133514,251.638885 467.890411,252.458115 469.453735,253.653763 
	C470.925140,254.779083 471.709412,256.993042 474.047333,256.942139 
	C475.352600,250.501923 474.366486,247.266296 468.724243,241.157471 
M395.258728,304.833679 
	C392.693695,307.557434 389.058411,309.150360 386.797913,312.671082 
	C388.815247,314.102936 390.202026,317.107269 393.080200,314.832947 
	C396.387939,312.219147 399.715515,309.535492 402.415710,305.999176 
	C400.410370,303.760529 398.437683,302.764465 395.258728,304.833679 
M413.698456,408.468109 
	C413.698456,396.916595 413.698456,385.365112 413.698456,373.813599 
	C413.376190,373.826630 413.053925,373.839661 412.731659,373.852661 
	C412.731659,389.024841 412.731659,404.197021 412.731659,419.369171 
	C413.053772,419.365509 413.375916,419.361847 413.698029,419.358154 
	C413.698029,416.055237 413.698029,412.752319 413.698456,408.468109 
M600.062317,212.841309 
	C594.053467,210.219543 589.216736,205.842972 584.329468,201.110443 
	C582.521179,206.963730 591.897095,207.769791 588.840820,213.950317 
	C593.082581,217.344116 597.014832,217.280365 600.062317,212.841309 
M406.778137,491.947174 
	C406.713043,486.388611 402.010834,486.909790 397.887268,484.259888 
	C400.190948,491.120453 401.532257,496.649200 406.787689,501.178284 
	C406.787689,497.739838 406.787689,495.262970 406.778137,491.947174 
M489.301147,171.322861 
	C488.994843,176.520706 489.571136,181.466476 493.491364,185.972153 
	C495.669342,181.505783 494.368561,177.179733 494.705078,172.907196 
	C489.056213,175.139893 492.085602,169.229523 489.881866,167.832794 
	C489.654877,168.990982 489.497253,169.795319 489.301147,171.322861 
M431.107574,308.536652 
	C432.469910,303.767090 428.162292,303.478577 425.711334,302.578949 
	C423.413055,301.735382 420.140259,301.321747 417.534943,305.502380 
	C422.381592,305.452240 425.043427,307.140869 427.126862,310.250916 
	C428.734222,312.650299 429.736023,310.181427 431.107574,308.536652 
M499.809540,207.088776 
	C500.501160,208.358276 499.549103,210.173370 501.422272,211.341644 
	C504.981415,209.684937 506.345276,206.851410 505.291504,203.029602 
	C504.684296,200.827377 502.723022,199.546768 500.635590,200.506546 
	C497.988098,201.723801 498.313110,204.157333 499.809540,207.088776 
M496.489990,481.059540 
	C500.948059,494.757172 502.300934,508.688416 499.601288,522.926453 
	C502.773376,508.600525 502.819183,494.485107 496.489990,481.059540 
M519.074951,145.615616 
	C520.576233,146.525238 521.543396,148.324799 524.046570,148.332474 
	C524.433411,147.060684 526.359802,146.525284 526.168945,144.457626 
	C524.417175,142.788864 522.255310,142.158142 519.903870,142.389801 
	C518.159851,142.561584 516.915710,143.278610 519.074951,145.615616 
M378.854462,321.499664 
	C377.562408,322.824219 375.201355,323.798950 377.118927,326.240723 
	C377.861725,327.186615 378.925903,327.861389 380.109650,326.961456 
	C381.632385,325.803833 383.825562,324.805847 383.273895,322.465210 
	C382.824677,320.559265 381.240997,320.007141 378.854462,321.499664 
M367.831573,332.164948 
	C367.079437,333.601685 367.378632,335.427734 368.899811,335.150543 
	C371.726593,334.635315 373.469421,332.376373 374.473022,329.521515 
	C371.055481,327.083252 369.980896,330.300903 367.831573,332.164948 
M414.217560,252.978531 
	C415.898163,250.230896 418.888489,247.791946 416.567993,243.755234 
	C413.857788,245.402557 413.585449,248.022415 412.890656,250.319550 
	C412.594727,251.297928 411.175507,253.073776 414.217560,252.978531 
M399.625946,325.273102 
	C395.161072,328.097687 395.024750,329.874207 399.298340,333.080322 
	C399.869873,330.478546 401.248138,328.153625 399.625946,325.273102 
M402.322296,360.728546 
	C402.361786,362.337585 402.139008,364.113495 405.043793,364.274384 
	C405.997681,362.348572 406.881256,360.124634 405.027954,358.341034 
	C403.905945,357.261261 402.711426,358.543427 402.322296,360.728546 
M405.914642,335.513489 
	C405.929626,333.236511 408.115936,331.107330 406.655090,328.430115 
	C403.750122,331.372192 403.547119,333.694153 405.914642,335.513489 
z"/>
<path fill="#000000" opacity="1.000000" stroke="none" 
	d="
M602.735229,427.252869 
	C602.138611,428.256897 601.731934,429.009552 599.810791,428.630951 
	C606.860413,406.228210 614.882690,384.443665 627.707397,364.703552 
	C620.188721,385.767578 613.106812,406.996307 602.735229,427.252869 
z"/>
<path fill="#000000" opacity="1.000000" stroke="none" 
	d="
M666.480713,439.421783 
	C661.192139,447.112030 655.841797,454.246124 647.510376,458.672241 
	C657.523804,444.896027 667.410583,431.078247 675.370178,415.916260 
	C674.373230,424.435272 670.959961,431.938904 666.480713,439.421783 
z"/>
<path fill="#000000" opacity="1.000000" stroke="none" 
	d="
M523.538208,204.796997 
	C524.195679,203.303101 524.384644,201.828674 526.105713,201.725830 
	C527.043884,208.917374 530.734497,210.183929 541.273438,206.811783 
	C540.171509,204.424652 536.629456,204.411804 535.872681,201.150192 
	C540.423584,201.803604 543.644165,204.350082 547.207947,206.183319 
	C541.611816,216.131027 527.672852,218.627655 520.182068,210.922943 
	C521.803772,209.354767 523.108948,207.495178 523.538208,204.796997 
z"/>
<path fill="#000000" opacity="1.000000" stroke="none" 
	d="
M541.014587,193.592743 
	C534.723083,191.925079 529.585815,194.508224 524.303101,196.435944 
	C522.130493,197.228760 519.366150,199.292206 518.030518,195.656952 
	C516.795227,192.294662 519.434998,191.011826 522.122620,190.076889 
	C531.720947,186.737915 540.686218,187.059387 548.436096,194.549011 
	C549.030396,195.123398 549.633301,195.701935 550.136353,196.352646 
	C550.412476,196.709839 550.488037,197.222015 550.813293,198.088684 
	C546.876648,197.808624 544.698303,194.480545 541.014587,193.592743 
z"/>
<path fill="#000000" opacity="1.000000" stroke="none" 
	d="
M506.349182,232.170929 
	C504.195740,231.079498 502.354828,230.104034 500.398468,229.067383 
	C503.322876,226.656876 507.377930,227.405746 508.446869,230.329498 
	C509.044037,231.962799 508.114410,232.414291 506.349182,232.170929 
z"/>
<path fill="#000000" opacity="1.000000" stroke="none" 
	d="
M557.870361,345.762756 
	C559.113403,342.914703 559.158203,339.867889 562.792480,337.074646 
	C562.479126,342.667938 561.797424,346.794312 557.842773,350.283783 
	C556.363281,348.713226 557.499023,347.392029 557.870361,345.762756 
z"/>
<path fill="#000000" opacity="1.000000" stroke="none" 
	d="
M519.949829,494.000610 
	C520.554016,494.796997 521.062683,495.330353 521.184814,495.941010 
	C521.628601,498.160187 521.803284,500.652130 518.972839,501.158264 
	C516.143799,501.664093 515.116211,499.271912 515.184814,497.043121 
	C515.263428,494.488007 516.385986,492.388397 519.949829,494.000610 
z"/>
<path fill="#000000" opacity="1.000000" stroke="none" 
	d="
M395.497498,468.552185 
	C394.647400,467.088043 393.025940,466.212891 394.157715,464.172913 
	C397.053040,465.705627 399.610687,467.311951 399.824280,471.080078 
	C397.399933,471.736420 396.745941,469.945770 395.497498,468.552185 
z"/>
</svg>