<svg version="1.1" id="Layer_1" xmlns="http://www.w3.org/2000/svg" xmlns:xlink="http://www.w3.org/1999/xlink" x="0px" y="0px"
	 width="100%" viewBox="0 0 1024 656" enable-background="new 0 0 1024 656" xml:space="preserve">
<path fill="#000000" opacity="1.000000" stroke="none" 
	d="
M400.696594,119.627823 
	C421.216553,108.578865 442.402679,100.401649 464.816467,95.314117 
	C472.126617,93.654846 479.523071,93.127129 486.638611,94.386101 
	C501.455322,97.007683 515.885803,95.972603 530.056702,91.602028 
	C539.508484,88.686920 548.695496,90.791626 557.728943,92.348930 
	C624.558777,103.869888 678.292480,137.013504 718.167725,191.857849 
	C742.819214,225.763550 757.397034,263.948669 762.353271,305.602264 
	C769.305969,364.034546 756.663330,418.139130 725.088501,467.702454 
	C697.309570,511.307343 658.922729,542.505005 611.553772,562.759949 
	C588.271179,572.715698 563.861389,578.335571 538.621582,580.340210 
	C485.925476,584.525452 436.792023,572.856140 392.163544,544.871521 
	C328.030426,504.656372 288.075684,447.295044 276.749329,371.950256 
	C264.611420,291.206818 288.373169,221.228409 344.415894,162.239532 
	C360.670105,145.130890 379.698639,131.283081 400.696594,119.627823 
M462.664734,218.537949 
	C462.147217,219.290695 461.629700,220.043442 460.703888,221.527588 
	C458.227173,233.080536 464.095734,242.974167 474.846039,245.278748 
	C475.344818,247.565567 473.941193,248.845230 472.124939,249.340790 
	C466.400879,250.902512 464.584808,244.891571 460.457703,242.809601 
	C455.605347,250.003937 446.335754,253.531876 445.398254,263.671051 
	C445.109924,266.789246 444.949707,268.837128 447.411377,271.053497 
	C457.815948,280.421295 468.572906,289.364349 479.478333,298.132355 
	C481.336945,299.626709 483.465759,301.108704 483.729279,303.475403 
	C484.672180,311.944885 489.271362,318.168518 495.146729,323.857300 
	C497.533447,326.168274 498.890228,329.335175 500.326660,332.356445 
	C501.332336,334.471802 502.498779,336.510773 503.593475,338.583832 
	C502.662231,329.180267 499.706146,320.550415 496.225861,312.091187 
	C494.966492,309.030151 493.354919,306.223267 489.379944,308.538086 
	C487.066833,305.789490 487.323761,302.858643 488.104431,300.185242 
	C490.015625,293.640442 488.284332,288.123901 484.309509,282.896820 
	C480.680023,278.123901 477.256866,273.179382 474.698486,267.722778 
	C472.417938,262.858734 472.494995,258.669434 474.742554,255.429352 
	C474.935883,255.683990 475.216736,255.910202 475.309998,256.197327 
	C481.078705,273.956543 496.059418,280.309387 511.886200,285.264130 
	C517.076111,286.888855 521.315735,283.175629 520.479309,278.071442 
	C519.836670,274.149994 520.092896,271.322998 524.130737,269.806976 
	C522.342957,266.970459 518.386597,268.665314 516.933594,265.805115 
	C518.432983,264.493225 520.050842,265.030823 521.457703,264.653900 
	C523.433472,264.124573 526.334106,264.753235 526.914185,262.145721 
	C527.472351,259.636475 526.542664,257.386597 523.636353,256.218384 
	C521.607666,255.402939 520.625488,253.628342 522.543152,250.833420 
	C524.638062,255.879272 528.693176,251.890182 531.782288,253.242615 
	C533.329102,253.919815 535.329834,253.843155 535.591003,251.465530 
	C535.846497,249.139984 534.356995,248.221115 532.186279,248.189926 
	C524.784241,248.083603 520.683960,243.913788 518.456299,237.238937 
	C517.439209,234.191315 516.666626,230.806046 512.732239,230.179794 
	C513.278503,227.768402 515.847717,228.400299 516.931152,226.865326 
	C514.454773,226.153366 512.010376,226.934189 510.138153,225.524994 
	C510.325226,223.987366 511.339050,223.485611 512.226807,223.242340 
	C519.464355,221.258942 525.949524,217.451874 532.916931,214.856277 
	C535.357788,213.946960 536.682129,213.154587 536.170349,210.369125 
	C535.841614,208.580276 535.751343,206.713562 535.824341,204.892563 
	C535.951172,201.730682 534.564575,200.041977 531.531311,199.122253 
	C527.074707,197.770935 522.734558,196.038422 518.333374,194.500870 
	C514.274658,193.082962 510.155243,192.209991 506.534058,195.400848 
	C502.854370,198.643341 504.215637,202.682831 505.260742,206.550858 
	C506.135742,209.789215 505.844849,212.843246 502.558441,214.254639 
	C495.175323,217.425491 492.522217,223.450165 491.613708,230.795532 
	C491.339722,233.010422 491.588074,235.773468 487.916840,235.392792 
	C484.672394,235.056351 481.551392,234.777344 480.783691,230.622971 
	C479.981506,226.282227 477.582581,222.586700 475.102905,219.102417 
	C471.711121,214.336517 466.889252,214.109726 462.664734,218.537949 
M718.459717,422.020599 
	C719.014404,420.627869 719.551086,419.227631 720.126465,417.843475 
	C736.552490,378.328552 741.080811,337.469330 733.148254,295.443268 
	C723.709595,245.437103 700.224731,203.251801 661.420288,169.979050 
	C613.787048,129.136032 558.700867,111.648933 496.249847,118.163567 
	C449.095795,123.082481 407.917755,141.969086 373.517731,174.330963 
	C323.656158,221.238342 300.721619,279.394287 304.148041,347.861053 
	C305.583740,376.548950 313.002838,403.720764 325.517944,429.425110 
	C342.571960,464.451874 367.362427,492.984985 399.491852,515.070374 
	C404.018463,518.181885 408.619263,521.193481 413.582947,523.619995 
	C416.607635,525.098694 418.201874,524.362122 418.955872,521.080200 
	C420.217926,515.586975 420.639404,510.020782 418.053162,504.942963 
	C414.282959,497.540558 414.179626,489.934784 415.420868,482.052216 
	C416.614075,474.474518 416.017334,467.275543 412.209900,460.276978 
	C404.535950,446.171448 399.131165,431.120422 395.004852,415.624847 
	C392.856079,407.555450 390.515137,399.484650 386.798035,392.069275 
	C378.344543,375.205231 377.069977,357.250671 377.880157,338.985107 
	C378.571198,323.405151 384.956726,310.537903 397.277740,300.530304 
	C404.800995,294.419617 412.718109,288.925171 420.653992,283.417847 
	C422.138580,282.387573 424.284210,281.591248 424.415680,279.646698 
	C424.698700,275.461517 427.427673,272.244690 428.386108,268.415710 
	C429.736938,263.019165 432.680420,260.001801 438.414307,259.984467 
	C441.641205,259.974731 443.085236,257.912170 442.564423,255.061157 
	C441.487885,249.168076 442.051941,243.118820 440.338531,237.272812 
	C437.429260,227.346786 435.417358,217.158447 435.241272,206.827911 
	C435.017120,193.678436 437.494690,181.231049 448.181061,171.986115 
	C448.800323,171.450394 449.926605,170.625092 449.809296,170.247864 
	C448.496521,166.025787 452.154236,166.368149 454.221558,165.306778 
	C455.531311,164.634338 457.162598,164.772781 458.295410,163.569962 
	C463.352356,158.200531 470.373444,156.918457 476.943390,154.729187 
	C483.138153,152.664902 489.121796,155.222641 495.207031,155.669479 
	C506.793243,156.520294 516.695435,162.507462 527.411804,166.002792 
	C529.422424,171.536713 533.686096,169.168411 537.362610,168.832138 
	C540.497925,168.545349 541.224670,170.613663 540.833984,172.948975 
	C540.241516,176.490982 541.605835,178.979340 543.964233,181.386642 
	C549.328430,186.862076 549.101196,192.083099 543.452942,197.327606 
	C542.258911,198.436249 540.510620,199.147491 540.455261,201.098236 
	C540.211548,209.683517 541.213928,218.563736 549.340027,222.868240 
	C561.496582,229.307724 573.972168,235.718567 588.364380,235.883865 
	C590.023987,235.902924 591.686279,236.100098 593.338562,236.290085 
	C604.485962,237.571838 615.269348,237.344147 624.336487,229.303955 
	C625.744019,228.055862 627.628723,227.856293 629.504395,227.730103 
	C631.158875,227.618790 633.508728,228.401749 633.598511,225.455231 
	C633.675537,222.925720 631.996094,221.941757 629.834961,221.617050 
	C628.192993,221.370361 626.515259,221.373383 624.861389,221.192612 
	C621.336487,220.807343 619.431152,219.030670 619.658936,215.262451 
	C620.251892,205.453049 620.787354,195.640091 621.323547,185.827332 
	C621.567505,181.362564 624.048584,179.636490 628.287109,180.106110 
	C639.537720,181.352646 650.694519,183.201263 661.811157,185.322403 
	C664.930542,185.917618 666.475403,187.516739 666.280212,190.791092 
	C665.735474,199.929764 665.267639,209.072998 664.758911,218.213837 
	C664.550720,221.954605 662.494690,223.450714 658.833008,223.299484 
	C655.412292,223.158234 651.981201,223.269302 648.064270,223.269302 
	C649.504639,226.552017 651.748901,226.689423 654.101135,226.822556 
	C664.738159,227.424622 675.374146,228.051895 686.005493,228.746338 
	C691.756775,229.122025 695.163513,232.780777 695.240173,238.448242 
	C695.321167,244.440018 692.536133,247.709961 686.484009,248.371368 
	C682.850769,248.768433 679.180725,248.828110 675.527466,249.044388 
	C673.876709,249.142136 672.061646,248.922287 670.891418,250.397263 
	C669.056458,252.710114 666.527100,253.325089 663.820374,253.563629 
	C660.370117,253.867722 657.627625,254.984070 655.459045,258.084808 
	C653.077393,261.490356 649.239258,262.964325 645.070740,263.334412 
	C642.250793,263.584747 639.428772,263.820221 636.614380,264.124084 
	C633.500488,264.460236 631.692383,266.493835 631.466919,269.348969 
	C631.235474,272.279205 633.358459,273.559235 636.105774,274.266327 
	C640.271179,275.338379 643.899597,273.399597 647.784058,272.863190 
	C655.885132,271.744476 663.835999,270.947571 671.822449,268.341461 
	C681.930847,265.042847 692.835815,265.467682 703.517090,266.707123 
	C709.931030,267.451355 713.898926,270.468048 714.039673,276.608673 
	C714.360229,290.596191 714.371338,304.607483 713.910889,318.589417 
	C713.669128,325.930695 710.122009,329.393097 702.816162,330.550751 
	C694.618103,331.849792 686.378601,333.357422 678.014404,331.520844 
	C675.571533,330.984497 673.782593,331.181641 673.019226,334.548645 
	C671.198669,342.578522 666.935608,349.235535 659.820129,353.715485 
	C657.208679,355.359650 655.829102,357.592529 655.335205,360.554626 
	C654.842712,363.508118 653.948914,366.422516 653.737854,369.390106 
	C653.013916,379.568451 650.690491,389.467407 652.823242,400.035706 
	C655.294983,412.283508 652.821655,423.981079 641.079651,431.674103 
	C639.339722,432.814056 638.051575,434.756531 636.797302,436.502228 
	C633.943726,440.474121 630.132202,442.305054 625.287415,442.386322 
	C616.906677,442.526886 608.710999,441.194702 600.537354,439.567871 
	C597.698303,439.002808 595.280518,437.775848 592.952881,436.008087 
	C584.526062,429.608093 574.885315,425.075958 565.967712,417.779572 
	C566.742065,461.099213 572.699890,502.487091 583.717346,543.570435 
	C589.891174,542.176270 595.218018,539.821411 600.527283,537.570190 
	C632.793640,523.888794 660.507263,504.060516 683.395508,477.297577 
	C697.611267,460.675171 709.267395,442.632172 718.459717,422.020599 
M571.829895,319.708527 
	C563.356079,310.803223 562.211243,300.010681 568.652161,289.816620 
	C569.362610,288.692169 570.119690,287.586639 570.713745,286.401520 
	C571.770325,284.293640 572.322998,282.161591 570.344971,279.897461 
	C565.648010,284.841553 562.250610,289.740295 560.720642,296.549591 
	C558.812500,305.041504 560.032837,312.734955 562.889099,320.429749 
	C565.470398,327.383911 564.135376,333.165131 559.748718,339.040955 
	C548.646118,353.912659 536.413879,367.693787 522.008850,379.411743 
	C518.830078,381.997559 518.380188,384.343414 519.611694,387.966095 
	C523.369385,399.020111 527.978882,409.695282 533.116455,420.163971 
	C534.841431,423.678925 536.894531,423.538025 539.198425,420.919861 
	C540.844666,419.049072 542.293518,417.004303 543.824219,415.032288 
	C559.106995,395.343353 570.399292,373.212555 582.490479,351.581757 
	C585.080566,346.948212 588.212891,343.107056 592.589478,340.123138 
	C596.297485,337.595062 599.260742,334.381287 600.489075,329.349243 
	C590.462158,327.285126 580.622803,326.066101 571.829895,319.708527 
M640.534485,325.942017 
	C639.145447,324.506317 638.401733,321.215820 635.778992,322.743164 
	C633.095886,324.305634 635.564453,326.652435 636.349915,328.381805 
	C638.413391,332.925140 640.879272,337.284027 643.034668,341.788239 
	C643.742981,343.268311 645.450256,344.687408 643.719299,347.277313 
	C635.953674,341.911621 635.013672,331.581879 627.887634,325.953949 
	C627.460693,334.759430 633.690247,341.650665 635.028015,349.854218 
	C632.413757,350.435669 632.056763,347.344238 630.028992,348.227997 
	C627.675293,351.223663 630.402039,354.400146 629.271606,357.817749 
	C626.119507,367.346558 621.735352,376.314575 617.614685,385.359528 
	C613.208557,395.031006 615.816528,402.876587 621.934021,410.231598 
	C625.280762,414.255341 629.472961,417.911987 635.231018,416.470428 
	C640.535095,415.142548 641.380371,410.000092 642.707825,405.528961 
	C646.814941,391.695587 646.272156,377.187836 648.853821,363.132324 
	C649.059387,362.013092 649.096924,360.779327 647.706665,359.802216 
	C644.871460,359.537018 641.368469,361.295929 638.438232,358.107513 
	C639.849121,356.508331 641.642761,356.122345 643.309143,355.510651 
	C648.473633,353.614807 653.632874,351.677643 658.126099,348.411163 
	C662.845825,344.979950 665.746094,340.109619 667.731750,334.813904 
	C669.541199,329.988068 664.915894,327.920197 662.656799,324.872314 
	C661.964233,323.937897 661.423035,322.892456 660.750610,321.941650 
	C660.062622,320.969025 659.303406,320.038330 657.607788,320.923615 
	C656.112732,326.877075 664.971680,330.904480 661.479919,337.458618 
	C659.184265,337.313049 659.022400,335.548798 658.273132,334.356659 
	C655.262207,329.565369 652.391846,324.679413 649.206909,320.007416 
	C648.138123,318.439667 646.947144,315.793549 644.122498,317.665558 
	C641.355591,319.499390 643.140198,321.394531 644.230896,323.199127 
	C646.814941,327.474579 649.530701,331.673828 652.000366,336.013550 
	C653.072693,337.897827 654.608948,339.838196 653.413269,343.276550 
	C648.372864,337.793915 644.844666,332.010773 640.534485,325.942017 
M600.173950,340.649628 
	C597.167664,343.514038 593.868103,346.131775 591.211426,349.290253 
	C583.922485,357.955750 584.383972,360.907043 592.779602,368.559814 
	C596.649780,372.087555 600.052979,376.127563 604.106934,380.397736 
	C598.604187,382.557465 593.499695,383.620972 589.223938,388.730286 
	C592.010132,387.467438 593.569519,386.611755 595.228516,386.050354 
	C596.912109,385.480652 598.783752,384.319611 600.460632,385.601593 
	C602.501221,387.161621 600.712585,388.977173 600.223083,390.573090 
	C597.796265,398.485687 597.549438,405.112885 599.879700,411.154022 
	C598.664612,396.815857 604.672485,386.419556 614.190125,376.990417 
	C620.405029,370.833252 623.310059,362.363922 623.780396,353.512878 
	C623.976135,349.828064 623.997986,346.396393 625.754211,342.937225 
	C628.324158,337.875488 624.091675,331.819214 618.543823,331.336914 
	C611.104797,330.690216 604.671997,331.551605 601.320435,339.379639 
	C601.196472,339.669098 600.887573,339.879395 600.173950,340.649628 
M525.831604,276.848206 
	C526.250549,288.693939 518.495544,291.362000 507.316101,291.114777 
	C512.412292,296.189819 516.948364,299.093323 521.823853,301.501495 
	C522.883362,302.024750 524.141602,301.891815 525.160950,301.150391 
	C531.594543,296.471039 538.668518,292.208466 536.734070,282.325806 
	C536.420898,280.725983 536.689331,279.008057 536.722656,277.345398 
	C536.848022,271.094269 542.980774,261.762665 548.976685,260.075684 
	C554.527283,258.514008 555.364014,254.136414 557.421143,249.700668 
	C553.303528,248.786407 549.787476,247.907166 546.230957,247.245087 
	C542.976196,246.639175 541.059082,247.838882 541.249390,251.475510 
	C541.451843,255.344482 539.225037,257.449493 535.723572,257.956604 
	C532.600342,258.408936 531.775757,260.136444 531.266602,262.922089 
	C530.405396,267.633820 528.899536,272.191803 525.831604,276.848206 
M655.762573,189.782242 
	C650.523071,188.970261 645.281372,188.171921 640.044739,187.341736 
	C636.234802,186.737732 634.179382,187.734818 634.088135,192.187744 
	C633.955933,198.637299 633.313049,205.087814 632.624084,211.509598 
	C632.290894,214.615021 633.402954,215.637665 636.381836,215.810623 
	C642.164185,216.146408 647.984741,216.453568 653.681885,217.412262 
	C657.726196,218.092804 659.265747,216.641800 659.528625,212.976944 
	C659.967163,206.862396 660.265198,200.735962 660.817200,194.632141 
	C661.114929,191.340225 659.586365,190.087723 655.762573,189.782242 
M596.535339,296.703613 
	C596.733704,295.404327 596.769592,294.054169 597.157898,292.814362 
	C599.069580,286.709259 602.166138,281.233398 606.135925,276.225281 
	C607.711670,274.237335 610.775024,271.949005 608.360779,269.499542 
	C605.313538,266.407867 603.454956,270.442322 601.560730,272.090881 
	C596.603516,276.405182 592.860596,281.687286 590.069702,287.651337 
	C589.187927,289.535645 588.383179,291.661011 585.204102,291.499451 
	C586.132812,282.012726 592.289978,275.350708 597.293152,268.188385 
	C594.805298,266.608002 593.154053,267.519287 591.586609,268.450562 
	C583.789978,273.082794 579.940796,280.530090 577.162415,288.750092 
	C576.536072,290.603271 577.336548,291.502716 578.897827,292.251312 
	C586.253052,295.778076 593.585388,299.352539 600.921509,302.919128 
	C602.560608,303.716003 604.344543,304.170837 605.195007,302.130829 
	C608.167786,294.999664 613.324463,289.158264 616.694092,282.279541 
	C617.416748,280.804382 618.290588,279.017212 616.500793,277.760376 
	C614.505859,276.359436 613.056580,277.798798 611.849304,279.255463 
	C607.916199,284.001068 604.146484,288.866272 600.777161,294.042755 
	C599.877319,295.425323 599.460266,297.699310 596.535339,296.703613 
M483.540955,406.071869 
	C486.280334,401.694427 487.943298,396.487885 493.131378,393.061951 
	C496.509918,400.744232 495.947266,409.224030 501.780579,416.693390 
	C500.905396,412.324280 500.545654,409.188354 499.632355,406.222900 
	C497.015839,397.726746 496.728912,390.097748 506.096130,385.257294 
	C503.343689,385.561798 500.883240,386.736481 498.556274,388.176727 
	C494.849518,390.471008 492.306549,389.621399 489.833099,385.997101 
	C484.022766,377.483246 478.228180,368.884094 470.719604,361.737335 
	C466.898804,358.100586 464.028748,353.960480 461.718201,349.317596 
	C460.358307,346.585052 458.724670,344.054993 455.942444,341.297638 
	C456.554504,346.538483 460.154602,349.913818 459.670380,354.398956 
	C457.857880,355.770844 456.094330,355.225159 454.330688,354.698944 
	C452.584106,354.177795 450.976837,352.889130 448.708191,353.924042 
	C467.245239,358.186371 475.609619,373.205872 485.881683,387.180267 
	C479.249969,390.635590 473.448853,393.678925 469.449677,400.182312 
	C475.312164,397.164276 479.827423,393.074432 486.871246,392.483948 
	C483.998444,399.451599 479.761597,404.828339 479.971252,412.790527 
	C481.369659,410.136505 482.275208,408.417847 483.540955,406.071869 
M601.072021,255.864868 
	C601.166321,251.621109 599.244873,249.552551 594.848389,249.652023 
	C592.214111,249.711639 589.554443,249.371460 586.930420,249.026505 
	C577.496216,247.786270 576.223328,248.526550 572.337158,256.754059 
	C570.539978,260.558838 571.876221,263.254608 575.363647,264.164215 
	C580.391846,265.475708 585.622498,267.072632 590.778870,263.964783 
	C593.096008,262.568207 595.969116,261.840454 598.364136,263.450317 
	C601.603760,265.627930 604.370667,264.602753 607.659485,263.225128 
	C604.859863,261.349121 602.617554,259.428741 601.072021,255.864868 
M428.688446,421.806366 
	C443.484131,436.941986 460.270630,449.358337 479.464417,458.330170 
	C493.586182,464.931091 502.695404,462.497284 513.296204,449.174866 
	C511.059845,450.584473 509.653412,451.333008 508.399658,452.283051 
	C498.483948,459.796600 488.144745,459.501923 477.499817,454.049957 
	C476.611023,453.594727 475.722137,453.139679 474.834106,452.682892 
	C460.053436,445.080017 447.498138,434.382660 434.889008,423.789673 
	C428.902740,418.760590 423.208557,413.383820 417.382080,408.164581 
	C417.188568,408.377258 416.995087,408.589966 416.801575,408.802643 
	C420.600677,412.969330 424.399750,417.135986 428.688446,421.806366 
M536.960083,454.957733 
	C536.692200,455.040314 536.403748,455.087036 536.166199,455.222748 
	C536.067566,455.279114 536.018921,455.536499 536.046387,455.684021 
	C537.751221,464.832458 539.841187,473.927612 541.102966,483.136322 
	C543.768677,502.591217 545.932678,522.114502 548.497070,541.584167 
	C548.830444,544.115540 548.337280,547.122681 550.886597,549.645630 
	C552.471558,546.689453 551.674744,544.058716 551.308350,541.556030 
	C550.200134,533.986877 548.641846,526.474976 547.762329,518.882446 
	C545.290588,497.544861 543.054199,476.180847 536.960083,454.957733 
M617.682251,305.166382 
	C619.450073,302.582214 621.261047,300.026031 622.963745,297.399658 
	C623.614014,296.396606 623.883301,295.249878 622.737244,294.283752 
	C621.674011,293.387360 620.549805,293.395721 619.639038,294.360229 
	C615.971008,298.244720 611.642090,301.546082 608.653137,305.814209 
	C612.074951,310.714386 614.768555,309.595490 617.682251,305.166382 
M612.436279,250.281143 
	C610.016113,250.893845 606.315735,248.708344 605.572998,252.967163 
	C605.072449,255.837189 608.958435,258.848969 612.865906,258.845093 
	C615.654419,258.842346 619.190796,259.009430 619.466187,255.309570 
	C619.748718,251.514572 617.172546,249.741806 612.436279,250.281143 
M552.753906,324.817932 
	C551.771484,324.665039 550.792847,324.480652 549.806091,324.364563 
	C544.550110,323.746063 539.407227,323.093811 538.522644,316.242493 
	C538.391724,315.228638 537.254028,313.894135 535.375793,314.630554 
	C535.850098,320.137512 538.676208,323.504395 544.051880,324.604675 
	C549.438110,325.707123 554.807312,326.738892 554.353943,334.166260 
	C558.071899,332.705750 559.937866,330.276215 559.558838,327.865875 
	C558.971436,324.130890 555.734070,325.621002 552.753906,324.817932 
M682.793823,288.666870 
	C681.791443,295.354218 680.723328,302.042297 682.375061,309.606781 
	C687.182617,302.747650 687.330627,293.449310 682.793823,288.666870 
M446.302979,301.279785 
	C444.886780,299.959747 444.041779,298.024994 441.391632,296.962097 
	C445.807037,304.498016 450.646240,310.946686 455.538177,317.352295 
	C456.402008,318.483398 457.620300,319.142548 458.991821,317.186798 
	C455.618347,311.588531 450.984772,306.848907 446.302979,301.279785 
M532.498535,438.521332 
	C527.271484,439.636536 525.170410,443.844788 522.998413,447.998169 
	C526.580078,445.269684 531.192078,443.667847 532.498535,438.521332 
M676.942505,317.572021 
	C677.047668,318.252594 677.152771,318.933197 677.257935,319.613770 
	C677.372742,319.595703 677.487610,319.577667 677.602417,319.559601 
	C677.602417,308.189362 677.602417,296.819122 677.602417,285.448853 
	C677.383118,285.448334 677.163757,285.447845 676.944458,285.447327 
	C676.944458,295.913757 676.944458,306.380188 676.942505,317.572021 
M612.723083,264.290192 
	C611.150330,267.411255 614.105713,268.397003 615.128601,270.321960 
	C617.263855,269.399963 618.977112,268.294373 618.411438,266.180176 
	C617.720886,263.599457 615.234619,264.458252 612.723083,264.290192 
M511.660767,321.156311 
	C511.826294,318.910278 511.991852,316.664246 512.157410,314.418213 
	C510.401550,318.883423 508.654175,323.249390 510.164948,328.082855 
	C510.635315,326.038940 511.105652,323.995056 511.660767,321.156311 
M641.147278,422.835876 
	C637.604736,423.767670 634.062134,424.699463 629.339966,425.941528 
	C634.920959,427.548309 638.468384,426.317902 641.147278,422.835876 
M692.017700,326.740723 
	C693.044983,326.418671 694.506104,327.391388 695.217834,325.434204 
	C691.110291,326.517242 687.005676,326.166748 681.708557,326.569122 
	C685.852966,328.450531 688.522461,326.827423 692.017700,326.740723 
z"/>
<path fill="#000000" opacity="1.000000" stroke="none" 
	d="
M462.812622,218.303070 
	C469.342773,215.989197 474.616638,219.608521 473.951965,226.229721 
	C473.591675,229.819260 473.414032,233.365448 473.754089,237.045898 
	C468.095093,235.458511 466.423981,229.363892 470.132812,224.727493 
	C469.062714,221.961151 466.930267,221.493042 464.518860,222.581802 
	C462.812683,223.352112 461.710876,223.625900 461.170105,221.118042 
	C461.629700,220.043442 462.147217,219.290695 462.812622,218.303070 
z"/>
</svg>